<mxfile host="app.diagrams.net" modified="2024-04-05T14:35:57.465Z" agent="Mozilla/5.0 (Windows NT 10.0; Win64; x64) AppleWebKit/537.36 (KHTML, like Gecko) Chrome/123.0.0.0 Safari/537.36" etag="2kY_u9TNnIrIKc7fSQiV" version="24.2.2" type="github" pages="3">
  <diagram name="Separação" id="58cdce13-f638-feb5-8d6f-7d28b1aa9fa0">
    <mxGraphModel dx="1674" dy="780" grid="1" gridSize="10" guides="1" tooltips="1" connect="1" arrows="1" fold="1" page="1" pageScale="1" pageWidth="1100" pageHeight="850" background="none" math="0" shadow="0">
      <root>
        <mxCell id="0" />
        <mxCell id="1" parent="0" />
        <mxCell id="382b91b5511bd0f7-1" value="" style="ellipse;html=1;shape=startState;fillColor=#000000;strokeColor=#ff0000;rounded=1;shadow=0;comic=0;labelBackgroundColor=none;fontFamily=Verdana;fontSize=12;fontColor=#000000;align=center;direction=south;" parent="1" vertex="1">
          <mxGeometry x="20" y="20" width="30" height="30" as="geometry" />
        </mxCell>
        <mxCell id="jEQ9bqi1bXGEA216Gn8D-32" style="edgeStyle=orthogonalEdgeStyle;rounded=0;orthogonalLoop=1;jettySize=auto;html=1;exitX=0.75;exitY=0;exitDx=0;exitDy=0;entryX=0;entryY=0.5;entryDx=0;entryDy=0;" parent="1" source="2a3bc250acf0617d-7" target="24f968d109e7d6b4-3" edge="1">
          <mxGeometry relative="1" as="geometry" />
        </mxCell>
        <mxCell id="jEQ9bqi1bXGEA216Gn8D-33" value="Necessário limpar máquina" style="edgeLabel;html=1;align=center;verticalAlign=middle;resizable=0;points=[];" parent="jEQ9bqi1bXGEA216Gn8D-32" vertex="1" connectable="0">
          <mxGeometry x="-0.2583" y="2" relative="1" as="geometry">
            <mxPoint x="51" y="2" as="offset" />
          </mxGeometry>
        </mxCell>
        <mxCell id="2a3bc250acf0617d-7" value="Ciclo automático separação" style="swimlane;whiteSpace=wrap;html=1;rounded=1;shadow=0;comic=0;labelBackgroundColor=none;strokeWidth=1;fontFamily=Verdana;fontSize=12;align=center;" parent="1" vertex="1">
          <mxGeometry x="20" y="80" width="940" height="710" as="geometry" />
        </mxCell>
        <mxCell id="3cde6dad864a17aa-10" style="edgeStyle=elbowEdgeStyle;html=1;labelBackgroundColor=none;endArrow=open;endSize=8;strokeColor=#ff0000;fontFamily=Verdana;fontSize=12;align=left;" parent="2a3bc250acf0617d-7" source="382b91b5511bd0f7-8" target="3cde6dad864a17aa-1" edge="1">
          <mxGeometry relative="1" as="geometry" />
        </mxCell>
        <mxCell id="SFfb35-ShU-kt1pV6KI9-8" value="Segurança ok" style="edgeLabel;html=1;align=center;verticalAlign=middle;resizable=0;points=[];" parent="3cde6dad864a17aa-10" vertex="1" connectable="0">
          <mxGeometry x="0.12" y="1" relative="1" as="geometry">
            <mxPoint x="-5" y="1" as="offset" />
          </mxGeometry>
        </mxCell>
        <mxCell id="382b91b5511bd0f7-8" value="Desligada" style="rounded=1;whiteSpace=wrap;html=1;arcSize=24;fillColor=#ffffc0;strokeColor=#ff0000;shadow=0;comic=0;labelBackgroundColor=none;fontFamily=Verdana;fontSize=12;fontColor=#000000;align=center;" parent="2a3bc250acf0617d-7" vertex="1">
          <mxGeometry x="95" y="65" width="120" height="60" as="geometry" />
        </mxCell>
        <mxCell id="3cde6dad864a17aa-9" style="edgeStyle=elbowEdgeStyle;html=1;labelBackgroundColor=none;endArrow=open;endSize=8;strokeColor=#ff0000;fontFamily=Verdana;fontSize=12;align=left;" parent="2a3bc250acf0617d-7" source="2a3bc250acf0617d-3" target="382b91b5511bd0f7-8" edge="1">
          <mxGeometry relative="1" as="geometry" />
        </mxCell>
        <mxCell id="2a3bc250acf0617d-3" value="" style="ellipse;html=1;shape=startState;fillColor=#000000;strokeColor=#ff0000;rounded=1;shadow=0;comic=0;labelBackgroundColor=none;fontFamily=Verdana;fontSize=12;fontColor=#000000;align=center;direction=south;" parent="2a3bc250acf0617d-7" vertex="1">
          <mxGeometry x="30" y="80" width="30" height="30" as="geometry" />
        </mxCell>
        <mxCell id="3cde6dad864a17aa-11" style="edgeStyle=elbowEdgeStyle;html=1;labelBackgroundColor=none;endArrow=open;endSize=8;strokeColor=#ff0000;fontFamily=Verdana;fontSize=12;align=left;" parent="2a3bc250acf0617d-7" source="3cde6dad864a17aa-1" target="3cde6dad864a17aa-2" edge="1">
          <mxGeometry relative="1" as="geometry" />
        </mxCell>
        <mxCell id="SFfb35-ShU-kt1pV6KI9-13" value="Operar" style="edgeLabel;html=1;align=center;verticalAlign=middle;resizable=0;points=[];" parent="3cde6dad864a17aa-11" vertex="1" connectable="0">
          <mxGeometry x="-0.3434" y="-1" relative="1" as="geometry">
            <mxPoint x="17" y="-1" as="offset" />
          </mxGeometry>
        </mxCell>
        <mxCell id="3cde6dad864a17aa-1" value="Standby" style="rounded=1;whiteSpace=wrap;html=1;arcSize=24;fillColor=#ffffc0;strokeColor=#ff0000;shadow=0;comic=0;labelBackgroundColor=none;fontFamily=Verdana;fontSize=12;fontColor=#000000;align=center;" parent="2a3bc250acf0617d-7" vertex="1">
          <mxGeometry x="320" y="65" width="120" height="60" as="geometry" />
        </mxCell>
        <mxCell id="SFfb35-ShU-kt1pV6KI9-29" value="" style="edgeStyle=orthogonalEdgeStyle;rounded=0;orthogonalLoop=1;jettySize=auto;html=1;" parent="2a3bc250acf0617d-7" source="3cde6dad864a17aa-2" target="SFfb35-ShU-kt1pV6KI9-28" edge="1">
          <mxGeometry relative="1" as="geometry" />
        </mxCell>
        <mxCell id="SFfb35-ShU-kt1pV6KI9-30" value="Text" style="edgeLabel;html=1;align=center;verticalAlign=middle;resizable=0;points=[];" parent="SFfb35-ShU-kt1pV6KI9-29" vertex="1" connectable="0">
          <mxGeometry x="-0.16" y="-1" relative="1" as="geometry">
            <mxPoint as="offset" />
          </mxGeometry>
        </mxCell>
        <mxCell id="SFfb35-ShU-kt1pV6KI9-43" value="Posicionou" style="edgeLabel;html=1;align=center;verticalAlign=middle;resizable=0;points=[];" parent="SFfb35-ShU-kt1pV6KI9-29" vertex="1" connectable="0">
          <mxGeometry x="-0.11" relative="1" as="geometry">
            <mxPoint as="offset" />
          </mxGeometry>
        </mxCell>
        <mxCell id="3cde6dad864a17aa-2" value="Posicionando&lt;div&gt;eixos&lt;/div&gt;" style="rounded=1;whiteSpace=wrap;html=1;arcSize=24;fillColor=#ffffc0;strokeColor=#ff0000;shadow=0;comic=0;labelBackgroundColor=none;fontFamily=Verdana;fontSize=12;fontColor=#000000;align=center;" parent="2a3bc250acf0617d-7" vertex="1">
          <mxGeometry x="540" y="65" width="120" height="60" as="geometry" />
        </mxCell>
        <mxCell id="SFfb35-ShU-kt1pV6KI9-22" value="" style="swimlane;fontStyle=0;childLayout=stackLayout;horizontal=1;startSize=15;fillColor=none;horizontalStack=0;resizeParent=1;resizeParentMax=0;resizeLast=0;collapsible=1;marginBottom=0;whiteSpace=wrap;html=1;" parent="2a3bc250acf0617d-7" vertex="1" collapsed="1">
          <mxGeometry x="320" y="125" width="100" height="30" as="geometry">
            <mxRectangle x="320" y="125" width="210" height="69" as="alternateBounds" />
          </mxGeometry>
        </mxCell>
        <mxCell id="SFfb35-ShU-kt1pV6KI9-23" value="+ atualiza o tamanho da separação;&lt;div&gt;+ atualiza a quantidade de giros;&lt;/div&gt;" style="text;strokeColor=none;fillColor=none;align=left;verticalAlign=top;spacingLeft=4;spacingRight=4;overflow=hidden;rotatable=0;points=[[0,0.5],[1,0.5]];portConstraint=eastwest;whiteSpace=wrap;html=1;" parent="SFfb35-ShU-kt1pV6KI9-22" vertex="1">
          <mxGeometry y="15" width="210" height="54" as="geometry" />
        </mxCell>
        <mxCell id="SFfb35-ShU-kt1pV6KI9-26" value="" style="swimlane;fontStyle=0;childLayout=stackLayout;horizontal=1;startSize=15;fillColor=none;horizontalStack=0;resizeParent=1;resizeParentMax=0;resizeLast=0;collapsible=1;marginBottom=0;whiteSpace=wrap;html=1;" parent="2a3bc250acf0617d-7" vertex="1" collapsed="1">
          <mxGeometry x="540" y="125" width="100" height="30" as="geometry">
            <mxRectangle x="540" y="125" width="140" height="69" as="alternateBounds" />
          </mxGeometry>
        </mxCell>
        <mxCell id="SFfb35-ShU-kt1pV6KI9-27" value="+ posiciona o giro;&lt;div&gt;+ posiciona o elevador;&lt;/div&gt;" style="text;strokeColor=none;fillColor=none;align=left;verticalAlign=top;spacingLeft=4;spacingRight=4;overflow=hidden;rotatable=0;points=[[0,0.5],[1,0.5]];portConstraint=eastwest;whiteSpace=wrap;html=1;" parent="SFfb35-ShU-kt1pV6KI9-26" vertex="1">
          <mxGeometry y="15" width="140" height="54" as="geometry" />
        </mxCell>
        <mxCell id="SFfb35-ShU-kt1pV6KI9-32" value="" style="edgeStyle=orthogonalEdgeStyle;rounded=0;orthogonalLoop=1;jettySize=auto;html=1;" parent="2a3bc250acf0617d-7" source="SFfb35-ShU-kt1pV6KI9-28" target="SFfb35-ShU-kt1pV6KI9-31" edge="1">
          <mxGeometry relative="1" as="geometry" />
        </mxCell>
        <mxCell id="SFfb35-ShU-kt1pV6KI9-33" value="Avançou" style="edgeLabel;html=1;align=center;verticalAlign=middle;resizable=0;points=[];" parent="SFfb35-ShU-kt1pV6KI9-32" vertex="1" connectable="0">
          <mxGeometry x="0.04" y="-2" relative="1" as="geometry">
            <mxPoint as="offset" />
          </mxGeometry>
        </mxCell>
        <mxCell id="SFfb35-ShU-kt1pV6KI9-28" value="Avançando porta&lt;div&gt;chapas&lt;/div&gt;" style="rounded=1;whiteSpace=wrap;html=1;arcSize=24;fillColor=#ffffc0;strokeColor=#ff0000;shadow=0;comic=0;labelBackgroundColor=none;fontFamily=Verdana;fontSize=12;fontColor=#000000;align=center;" parent="2a3bc250acf0617d-7" vertex="1">
          <mxGeometry x="740" y="65" width="120" height="60" as="geometry" />
        </mxCell>
        <mxCell id="SFfb35-ShU-kt1pV6KI9-31" value="Recuando facas" style="rounded=1;whiteSpace=wrap;html=1;arcSize=24;fillColor=#ffffc0;strokeColor=#ff0000;shadow=0;comic=0;labelBackgroundColor=none;fontFamily=Verdana;fontSize=12;fontColor=#000000;align=center;" parent="2a3bc250acf0617d-7" vertex="1">
          <mxGeometry x="740" y="210" width="120" height="60" as="geometry" />
        </mxCell>
        <mxCell id="SFfb35-ShU-kt1pV6KI9-48" value="" style="edgeStyle=orthogonalEdgeStyle;rounded=0;orthogonalLoop=1;jettySize=auto;html=1;" parent="2a3bc250acf0617d-7" source="SFfb35-ShU-kt1pV6KI9-34" target="SFfb35-ShU-kt1pV6KI9-47" edge="1">
          <mxGeometry relative="1" as="geometry" />
        </mxCell>
        <mxCell id="SFfb35-ShU-kt1pV6KI9-49" value="ajustou" style="edgeLabel;html=1;align=center;verticalAlign=middle;resizable=0;points=[];" parent="SFfb35-ShU-kt1pV6KI9-48" vertex="1" connectable="0">
          <mxGeometry x="-0.04" relative="1" as="geometry">
            <mxPoint as="offset" />
          </mxGeometry>
        </mxCell>
        <mxCell id="SFfb35-ShU-kt1pV6KI9-34" value="Ajustando&lt;div&gt;posições&lt;/div&gt;" style="rounded=1;whiteSpace=wrap;html=1;arcSize=24;fillColor=#ffffc0;strokeColor=#ff0000;shadow=0;comic=0;labelBackgroundColor=none;fontFamily=Verdana;fontSize=12;fontColor=#000000;align=center;" parent="2a3bc250acf0617d-7" vertex="1">
          <mxGeometry x="370" y="210" width="120" height="60" as="geometry" />
        </mxCell>
        <mxCell id="SFfb35-ShU-kt1pV6KI9-38" value="" style="edgeStyle=orthogonalEdgeStyle;rounded=0;orthogonalLoop=1;jettySize=auto;html=1;" parent="2a3bc250acf0617d-7" source="SFfb35-ShU-kt1pV6KI9-31" target="SFfb35-ShU-kt1pV6KI9-35" edge="1">
          <mxGeometry relative="1" as="geometry">
            <mxPoint x="840" y="710" as="sourcePoint" />
            <mxPoint x="360" y="715" as="targetPoint" />
          </mxGeometry>
        </mxCell>
        <mxCell id="SFfb35-ShU-kt1pV6KI9-53" value="Recuou" style="edgeLabel;html=1;align=center;verticalAlign=middle;resizable=0;points=[];" parent="SFfb35-ShU-kt1pV6KI9-38" vertex="1" connectable="0">
          <mxGeometry x="-0.152" y="-2" relative="1" as="geometry">
            <mxPoint as="offset" />
          </mxGeometry>
        </mxCell>
        <mxCell id="SFfb35-ShU-kt1pV6KI9-42" value="" style="edgeStyle=orthogonalEdgeStyle;rounded=0;orthogonalLoop=1;jettySize=auto;html=1;" parent="2a3bc250acf0617d-7" source="SFfb35-ShU-kt1pV6KI9-35" target="SFfb35-ShU-kt1pV6KI9-34" edge="1">
          <mxGeometry relative="1" as="geometry" />
        </mxCell>
        <mxCell id="SFfb35-ShU-kt1pV6KI9-44" value="Não" style="edgeLabel;html=1;align=center;verticalAlign=middle;resizable=0;points=[];" parent="SFfb35-ShU-kt1pV6KI9-42" vertex="1" connectable="0">
          <mxGeometry x="0.1388" y="-1" relative="1" as="geometry">
            <mxPoint as="offset" />
          </mxGeometry>
        </mxCell>
        <mxCell id="jEQ9bqi1bXGEA216Gn8D-20" style="edgeStyle=orthogonalEdgeStyle;rounded=0;orthogonalLoop=1;jettySize=auto;html=1;exitX=0.5;exitY=1;exitDx=0;exitDy=0;entryX=0.5;entryY=0;entryDx=0;entryDy=0;" parent="2a3bc250acf0617d-7" source="SFfb35-ShU-kt1pV6KI9-35" target="jEQ9bqi1bXGEA216Gn8D-15" edge="1">
          <mxGeometry relative="1" as="geometry">
            <Array as="points">
              <mxPoint x="620" y="500" />
              <mxPoint x="750" y="500" />
            </Array>
          </mxGeometry>
        </mxCell>
        <mxCell id="jEQ9bqi1bXGEA216Gn8D-21" value="Sim" style="edgeLabel;html=1;align=center;verticalAlign=middle;resizable=0;points=[];" parent="jEQ9bqi1bXGEA216Gn8D-20" vertex="1" connectable="0">
          <mxGeometry x="-0.8137" y="1" relative="1" as="geometry">
            <mxPoint as="offset" />
          </mxGeometry>
        </mxCell>
        <mxCell id="SFfb35-ShU-kt1pV6KI9-35" value="Pacote&#xa;montado?" style="rhombus;" parent="2a3bc250acf0617d-7" vertex="1">
          <mxGeometry x="575" y="195" width="90" height="90" as="geometry" />
        </mxCell>
        <mxCell id="SFfb35-ShU-kt1pV6KI9-45" value="Ajustando" style="swimlane;fontStyle=0;childLayout=stackLayout;horizontal=1;startSize=20;fillColor=none;horizontalStack=0;resizeParent=1;resizeParentMax=0;resizeLast=0;collapsible=1;marginBottom=0;whiteSpace=wrap;html=1;" parent="2a3bc250acf0617d-7" vertex="1" collapsed="1">
          <mxGeometry x="370" y="270" width="100" height="30" as="geometry">
            <mxRectangle x="370" y="270" width="150" height="74" as="alternateBounds" />
          </mxGeometry>
        </mxCell>
        <mxCell id="SFfb35-ShU-kt1pV6KI9-46" value="+ posiciona o elevador na posição de giro;&lt;div&gt;+ posiciona a separação;&lt;/div&gt;" style="text;strokeColor=none;fillColor=none;align=left;verticalAlign=top;spacingLeft=4;spacingRight=4;overflow=hidden;rotatable=0;points=[[0,0.5],[1,0.5]];portConstraint=eastwest;whiteSpace=wrap;html=1;" parent="SFfb35-ShU-kt1pV6KI9-45" vertex="1">
          <mxGeometry y="20" width="150" height="54" as="geometry" />
        </mxCell>
        <mxCell id="SFfb35-ShU-kt1pV6KI9-58" value="" style="edgeStyle=orthogonalEdgeStyle;rounded=0;orthogonalLoop=1;jettySize=auto;html=1;" parent="2a3bc250acf0617d-7" source="SFfb35-ShU-kt1pV6KI9-47" target="SFfb35-ShU-kt1pV6KI9-57" edge="1">
          <mxGeometry relative="1" as="geometry" />
        </mxCell>
        <mxCell id="SFfb35-ShU-kt1pV6KI9-59" value="Não" style="edgeLabel;html=1;align=center;verticalAlign=middle;resizable=0;points=[];" parent="SFfb35-ShU-kt1pV6KI9-58" vertex="1" connectable="0">
          <mxGeometry x="-0.048" y="-3" relative="1" as="geometry">
            <mxPoint as="offset" />
          </mxGeometry>
        </mxCell>
        <mxCell id="SFfb35-ShU-kt1pV6KI9-60" style="edgeStyle=orthogonalEdgeStyle;rounded=0;orthogonalLoop=1;jettySize=auto;html=1;exitX=0.5;exitY=1;exitDx=0;exitDy=0;entryX=0.75;entryY=0;entryDx=0;entryDy=0;" parent="2a3bc250acf0617d-7" source="SFfb35-ShU-kt1pV6KI9-47" target="SFfb35-ShU-kt1pV6KI9-54" edge="1">
          <mxGeometry relative="1" as="geometry" />
        </mxCell>
        <mxCell id="SFfb35-ShU-kt1pV6KI9-61" value="Sim" style="edgeLabel;html=1;align=center;verticalAlign=middle;resizable=0;points=[];" parent="SFfb35-ShU-kt1pV6KI9-60" vertex="1" connectable="0">
          <mxGeometry x="-0.2495" y="-2" relative="1" as="geometry">
            <mxPoint as="offset" />
          </mxGeometry>
        </mxCell>
        <mxCell id="SFfb35-ShU-kt1pV6KI9-47" value="Tem chapa&#xa;na entrada?" style="rhombus;" parent="2a3bc250acf0617d-7" vertex="1">
          <mxGeometry x="200" y="195" width="90" height="90" as="geometry" />
        </mxCell>
        <mxCell id="SFfb35-ShU-kt1pV6KI9-66" value="" style="edgeStyle=orthogonalEdgeStyle;rounded=0;orthogonalLoop=1;jettySize=auto;html=1;" parent="2a3bc250acf0617d-7" source="SFfb35-ShU-kt1pV6KI9-54" target="SFfb35-ShU-kt1pV6KI9-65" edge="1">
          <mxGeometry relative="1" as="geometry" />
        </mxCell>
        <mxCell id="SFfb35-ShU-kt1pV6KI9-69" value="Avançou" style="edgeLabel;html=1;align=center;verticalAlign=middle;resizable=0;points=[];" parent="SFfb35-ShU-kt1pV6KI9-66" vertex="1" connectable="0">
          <mxGeometry x="-0.1782" y="1" relative="1" as="geometry">
            <mxPoint as="offset" />
          </mxGeometry>
        </mxCell>
        <mxCell id="SFfb35-ShU-kt1pV6KI9-54" value="Separando" style="rounded=1;whiteSpace=wrap;html=1;arcSize=24;fillColor=#ffffc0;strokeColor=#ff0000;shadow=0;comic=0;labelBackgroundColor=none;fontFamily=Verdana;fontSize=12;fontColor=#000000;align=center;" parent="2a3bc250acf0617d-7" vertex="1">
          <mxGeometry x="30" y="350" width="120" height="60" as="geometry" />
        </mxCell>
        <mxCell id="SFfb35-ShU-kt1pV6KI9-62" style="edgeStyle=orthogonalEdgeStyle;rounded=0;orthogonalLoop=1;jettySize=auto;html=1;exitX=0.5;exitY=0;exitDx=0;exitDy=0;entryX=0.5;entryY=0;entryDx=0;entryDy=0;" parent="2a3bc250acf0617d-7" source="SFfb35-ShU-kt1pV6KI9-57" target="SFfb35-ShU-kt1pV6KI9-47" edge="1">
          <mxGeometry relative="1" as="geometry" />
        </mxCell>
        <mxCell id="SFfb35-ShU-kt1pV6KI9-57" value="Aguardando&lt;div&gt;chapa&lt;/div&gt;" style="rounded=1;whiteSpace=wrap;html=1;arcSize=24;fillColor=#ffffc0;strokeColor=#ff0000;shadow=0;comic=0;labelBackgroundColor=none;fontFamily=Verdana;fontSize=12;fontColor=#000000;align=center;" parent="2a3bc250acf0617d-7" vertex="1">
          <mxGeometry x="30" y="210" width="120" height="60" as="geometry" />
        </mxCell>
        <mxCell id="jEQ9bqi1bXGEA216Gn8D-2" value="" style="edgeStyle=orthogonalEdgeStyle;rounded=0;orthogonalLoop=1;jettySize=auto;html=1;" parent="2a3bc250acf0617d-7" source="SFfb35-ShU-kt1pV6KI9-65" target="jEQ9bqi1bXGEA216Gn8D-1" edge="1">
          <mxGeometry relative="1" as="geometry" />
        </mxCell>
        <mxCell id="jEQ9bqi1bXGEA216Gn8D-3" value="Transferiu" style="edgeLabel;html=1;align=center;verticalAlign=middle;resizable=0;points=[];" parent="jEQ9bqi1bXGEA216Gn8D-2" vertex="1" connectable="0">
          <mxGeometry x="-0.2727" relative="1" as="geometry">
            <mxPoint as="offset" />
          </mxGeometry>
        </mxCell>
        <mxCell id="SFfb35-ShU-kt1pV6KI9-65" value="Transferindo&lt;div&gt;elevador&lt;/div&gt;" style="rounded=1;whiteSpace=wrap;html=1;arcSize=24;fillColor=#ffffc0;strokeColor=#ff0000;shadow=0;comic=0;labelBackgroundColor=none;fontFamily=Verdana;fontSize=12;fontColor=#000000;align=center;" parent="2a3bc250acf0617d-7" vertex="1">
          <mxGeometry x="260" y="350" width="120" height="60" as="geometry" />
        </mxCell>
        <mxCell id="SFfb35-ShU-kt1pV6KI9-70" value="" style="swimlane;fontStyle=0;childLayout=stackLayout;horizontal=1;startSize=20;fillColor=none;horizontalStack=0;resizeParent=1;resizeParentMax=0;resizeLast=0;collapsible=1;marginBottom=0;whiteSpace=wrap;html=1;" parent="2a3bc250acf0617d-7" vertex="1" collapsed="1">
          <mxGeometry x="260" y="410" width="100" height="30" as="geometry">
            <mxRectangle x="260" y="410" width="140" height="74" as="alternateBounds" />
          </mxGeometry>
        </mxCell>
        <mxCell id="SFfb35-ShU-kt1pV6KI9-71" value="+ Abre porta de chapas;&lt;div&gt;+ conta separações feitas;&lt;/div&gt;" style="text;strokeColor=none;fillColor=none;align=left;verticalAlign=top;spacingLeft=4;spacingRight=4;overflow=hidden;rotatable=0;points=[[0,0.5],[1,0.5]];portConstraint=eastwest;whiteSpace=wrap;html=1;" parent="SFfb35-ShU-kt1pV6KI9-70" vertex="1">
          <mxGeometry y="20" width="140" height="54" as="geometry" />
        </mxCell>
        <mxCell id="jEQ9bqi1bXGEA216Gn8D-7" value="" style="edgeStyle=orthogonalEdgeStyle;rounded=0;orthogonalLoop=1;jettySize=auto;html=1;" parent="2a3bc250acf0617d-7" source="jEQ9bqi1bXGEA216Gn8D-1" target="jEQ9bqi1bXGEA216Gn8D-6" edge="1">
          <mxGeometry relative="1" as="geometry" />
        </mxCell>
        <mxCell id="jEQ9bqi1bXGEA216Gn8D-8" value="Setou" style="edgeLabel;html=1;align=center;verticalAlign=middle;resizable=0;points=[];" parent="jEQ9bqi1bXGEA216Gn8D-7" vertex="1" connectable="0">
          <mxGeometry x="-0.0444" y="4" relative="1" as="geometry">
            <mxPoint as="offset" />
          </mxGeometry>
        </mxCell>
        <mxCell id="jEQ9bqi1bXGEA216Gn8D-1" value="Calculando giro" style="rounded=1;whiteSpace=wrap;html=1;arcSize=24;fillColor=#ffffc0;strokeColor=#ff0000;shadow=0;comic=0;labelBackgroundColor=none;fontFamily=Verdana;fontSize=12;fontColor=#000000;align=center;" parent="2a3bc250acf0617d-7" vertex="1">
          <mxGeometry x="490" y="350" width="120" height="60" as="geometry" />
        </mxCell>
        <mxCell id="jEQ9bqi1bXGEA216Gn8D-4" value="" style="swimlane;fontStyle=0;childLayout=stackLayout;horizontal=1;startSize=20;fillColor=none;horizontalStack=0;resizeParent=1;resizeParentMax=0;resizeLast=0;collapsible=1;marginBottom=0;whiteSpace=wrap;html=1;" parent="2a3bc250acf0617d-7" vertex="1" collapsed="1">
          <mxGeometry x="490" y="410" width="100" height="30" as="geometry">
            <mxRectangle x="490" y="410" width="130" height="74" as="alternateBounds" />
          </mxGeometry>
        </mxCell>
        <mxCell id="jEQ9bqi1bXGEA216Gn8D-5" value="+ Seta posição para o eixo do giro;" style="text;strokeColor=none;fillColor=none;align=left;verticalAlign=top;spacingLeft=4;spacingRight=4;overflow=hidden;rotatable=0;points=[[0,0.5],[1,0.5]];portConstraint=eastwest;whiteSpace=wrap;html=1;" parent="jEQ9bqi1bXGEA216Gn8D-4" vertex="1">
          <mxGeometry y="20" width="130" height="54" as="geometry" />
        </mxCell>
        <mxCell id="jEQ9bqi1bXGEA216Gn8D-13" style="edgeStyle=orthogonalEdgeStyle;rounded=0;orthogonalLoop=1;jettySize=auto;html=1;exitX=1;exitY=0.5;exitDx=0;exitDy=0;entryX=1;entryY=0.5;entryDx=0;entryDy=0;" parent="2a3bc250acf0617d-7" source="jEQ9bqi1bXGEA216Gn8D-6" target="SFfb35-ShU-kt1pV6KI9-28" edge="1">
          <mxGeometry relative="1" as="geometry">
            <Array as="points">
              <mxPoint x="890" y="380" />
              <mxPoint x="890" y="95" />
            </Array>
          </mxGeometry>
        </mxCell>
        <mxCell id="jEQ9bqi1bXGEA216Gn8D-14" value="Posicionou" style="edgeLabel;html=1;align=center;verticalAlign=middle;resizable=0;points=[];" parent="jEQ9bqi1bXGEA216Gn8D-13" vertex="1" connectable="0">
          <mxGeometry x="-0.8597" y="-1" relative="1" as="geometry">
            <mxPoint x="13" y="-1" as="offset" />
          </mxGeometry>
        </mxCell>
        <mxCell id="jEQ9bqi1bXGEA216Gn8D-6" value="Girando" style="rounded=1;whiteSpace=wrap;html=1;arcSize=24;fillColor=#ffffc0;strokeColor=#ff0000;shadow=0;comic=0;labelBackgroundColor=none;fontFamily=Verdana;fontSize=12;fontColor=#000000;align=center;" parent="2a3bc250acf0617d-7" vertex="1">
          <mxGeometry x="700" y="350" width="120" height="60" as="geometry" />
        </mxCell>
        <mxCell id="jEQ9bqi1bXGEA216Gn8D-9" value="" style="swimlane;fontStyle=0;childLayout=stackLayout;horizontal=1;startSize=20;fillColor=none;horizontalStack=0;resizeParent=1;resizeParentMax=0;resizeLast=0;collapsible=1;marginBottom=0;whiteSpace=wrap;html=1;" parent="2a3bc250acf0617d-7" vertex="1" collapsed="1">
          <mxGeometry x="700" y="410" width="100" height="30" as="geometry">
            <mxRectangle x="700" y="410" width="150" height="90" as="alternateBounds" />
          </mxGeometry>
        </mxCell>
        <mxCell id="jEQ9bqi1bXGEA216Gn8D-10" value="+ Desce elevador para a posição de trabalho (giro);&lt;div&gt;+ Gira se o pacote não estiver finalizado;&lt;/div&gt;" style="text;strokeColor=none;fillColor=none;align=left;verticalAlign=top;spacingLeft=4;spacingRight=4;overflow=hidden;rotatable=0;points=[[0,0.5],[1,0.5]];portConstraint=eastwest;whiteSpace=wrap;html=1;" parent="jEQ9bqi1bXGEA216Gn8D-9" vertex="1">
          <mxGeometry y="20" width="150" height="70" as="geometry" />
        </mxCell>
        <mxCell id="jEQ9bqi1bXGEA216Gn8D-22" value="" style="edgeStyle=orthogonalEdgeStyle;rounded=0;orthogonalLoop=1;jettySize=auto;html=1;" parent="2a3bc250acf0617d-7" source="jEQ9bqi1bXGEA216Gn8D-15" target="jEQ9bqi1bXGEA216Gn8D-18" edge="1">
          <mxGeometry relative="1" as="geometry" />
        </mxCell>
        <mxCell id="jEQ9bqi1bXGEA216Gn8D-15" value="Descarregando" style="rounded=1;whiteSpace=wrap;html=1;arcSize=24;fillColor=#ffffc0;strokeColor=#ff0000;shadow=0;comic=0;labelBackgroundColor=none;fontFamily=Verdana;fontSize=12;fontColor=#000000;align=center;" parent="2a3bc250acf0617d-7" vertex="1">
          <mxGeometry x="690" y="525" width="120" height="60" as="geometry" />
        </mxCell>
        <mxCell id="jEQ9bqi1bXGEA216Gn8D-16" value="" style="swimlane;fontStyle=0;childLayout=stackLayout;horizontal=1;startSize=20;fillColor=none;horizontalStack=0;resizeParent=1;resizeParentMax=0;resizeLast=0;collapsible=1;marginBottom=0;whiteSpace=wrap;html=1;" parent="2a3bc250acf0617d-7" vertex="1" collapsed="1">
          <mxGeometry x="690" y="585" width="100" height="30" as="geometry">
            <mxRectangle x="690" y="585" width="150" height="120" as="alternateBounds" />
          </mxGeometry>
        </mxCell>
        <mxCell id="jEQ9bqi1bXGEA216Gn8D-17" value="+ Gira para a posição inicial;&lt;br&gt;&lt;div&gt;+ Desce pacote para a esteira;&lt;/div&gt;&lt;div&gt;+ Ajusta o esixo de separação&lt;/div&gt;" style="text;strokeColor=none;fillColor=none;align=left;verticalAlign=top;spacingLeft=4;spacingRight=4;overflow=hidden;rotatable=0;points=[[0,0.5],[1,0.5]];portConstraint=eastwest;whiteSpace=wrap;html=1;" parent="jEQ9bqi1bXGEA216Gn8D-16" vertex="1">
          <mxGeometry y="20" width="150" height="100" as="geometry" />
        </mxCell>
        <mxCell id="jEQ9bqi1bXGEA216Gn8D-26" value="" style="edgeStyle=orthogonalEdgeStyle;rounded=0;orthogonalLoop=1;jettySize=auto;html=1;" parent="2a3bc250acf0617d-7" source="jEQ9bqi1bXGEA216Gn8D-18" target="jEQ9bqi1bXGEA216Gn8D-25" edge="1">
          <mxGeometry relative="1" as="geometry" />
        </mxCell>
        <mxCell id="jEQ9bqi1bXGEA216Gn8D-27" value="Esteira&lt;div&gt;retirou&lt;/div&gt;" style="edgeLabel;html=1;align=center;verticalAlign=middle;resizable=0;points=[];" parent="jEQ9bqi1bXGEA216Gn8D-26" vertex="1" connectable="0">
          <mxGeometry x="-0.0667" y="-1" relative="1" as="geometry">
            <mxPoint as="offset" />
          </mxGeometry>
        </mxCell>
        <mxCell id="jEQ9bqi1bXGEA216Gn8D-18" value="Aguardando saída&amp;nbsp;&lt;div&gt;da separação&lt;/div&gt;" style="rounded=1;whiteSpace=wrap;html=1;arcSize=24;fillColor=#ffffc0;strokeColor=#ff0000;shadow=0;comic=0;labelBackgroundColor=none;fontFamily=Verdana;fontSize=12;fontColor=#000000;align=center;" parent="2a3bc250acf0617d-7" vertex="1">
          <mxGeometry x="490" y="525" width="120" height="60" as="geometry" />
        </mxCell>
        <mxCell id="jEQ9bqi1bXGEA216Gn8D-23" value="" style="swimlane;fontStyle=0;childLayout=stackLayout;horizontal=1;startSize=20;fillColor=none;horizontalStack=0;resizeParent=1;resizeParentMax=0;resizeLast=0;collapsible=1;marginBottom=0;whiteSpace=wrap;html=1;" parent="2a3bc250acf0617d-7" vertex="1" collapsed="1">
          <mxGeometry x="490" y="585" width="100" height="30" as="geometry">
            <mxRectangle x="490" y="550" width="150" height="120" as="alternateBounds" />
          </mxGeometry>
        </mxCell>
        <mxCell id="jEQ9bqi1bXGEA216Gn8D-24" value="+ Atualiza o ajuste da receita;&lt;div&gt;&lt;br&gt;&lt;/div&gt;" style="text;strokeColor=none;fillColor=none;align=left;verticalAlign=top;spacingLeft=4;spacingRight=4;overflow=hidden;rotatable=0;points=[[0,0.5],[1,0.5]];portConstraint=eastwest;whiteSpace=wrap;html=1;" parent="jEQ9bqi1bXGEA216Gn8D-23" vertex="1">
          <mxGeometry y="20" width="150" height="100" as="geometry" />
        </mxCell>
        <mxCell id="jEQ9bqi1bXGEA216Gn8D-28" style="edgeStyle=orthogonalEdgeStyle;rounded=0;orthogonalLoop=1;jettySize=auto;html=1;exitX=0;exitY=0.5;exitDx=0;exitDy=0;entryX=0.25;entryY=0;entryDx=0;entryDy=0;" parent="2a3bc250acf0617d-7" source="jEQ9bqi1bXGEA216Gn8D-25" target="3cde6dad864a17aa-1" edge="1">
          <mxGeometry relative="1" as="geometry">
            <Array as="points">
              <mxPoint x="10" y="555" />
              <mxPoint x="10" y="45" />
              <mxPoint x="350" y="45" />
            </Array>
          </mxGeometry>
        </mxCell>
        <mxCell id="jEQ9bqi1bXGEA216Gn8D-29" value="Sim" style="edgeLabel;html=1;align=center;verticalAlign=middle;resizable=0;points=[];" parent="jEQ9bqi1bXGEA216Gn8D-28" vertex="1" connectable="0">
          <mxGeometry x="-0.9095" y="1" relative="1" as="geometry">
            <mxPoint as="offset" />
          </mxGeometry>
        </mxCell>
        <mxCell id="jEQ9bqi1bXGEA216Gn8D-30" style="edgeStyle=orthogonalEdgeStyle;rounded=0;orthogonalLoop=1;jettySize=auto;html=1;exitX=0.5;exitY=1;exitDx=0;exitDy=0;entryX=1;entryY=0.25;entryDx=0;entryDy=0;" parent="2a3bc250acf0617d-7" source="jEQ9bqi1bXGEA216Gn8D-25" target="SFfb35-ShU-kt1pV6KI9-28" edge="1">
          <mxGeometry relative="1" as="geometry">
            <Array as="points">
              <mxPoint x="325" y="640" />
              <mxPoint x="910" y="640" />
              <mxPoint x="910" y="80" />
            </Array>
          </mxGeometry>
        </mxCell>
        <mxCell id="jEQ9bqi1bXGEA216Gn8D-31" value="Não" style="edgeLabel;html=1;align=center;verticalAlign=middle;resizable=0;points=[];" parent="jEQ9bqi1bXGEA216Gn8D-30" vertex="1" connectable="0">
          <mxGeometry x="-0.9603" relative="1" as="geometry">
            <mxPoint as="offset" />
          </mxGeometry>
        </mxCell>
        <mxCell id="jEQ9bqi1bXGEA216Gn8D-25" value="Último&#xa;ciclo?" style="rhombus;" parent="2a3bc250acf0617d-7" vertex="1">
          <mxGeometry x="280" y="510" width="90" height="90" as="geometry" />
        </mxCell>
        <mxCell id="2a3bc250acf0617d-9" style="edgeStyle=orthogonalEdgeStyle;html=1;labelBackgroundColor=none;endArrow=open;endSize=8;strokeColor=#ff0000;fontFamily=Verdana;fontSize=12;align=left;entryX=0.25;entryY=0;entryDx=0;entryDy=0;exitX=0.5;exitY=0;exitDx=0;exitDy=0;" parent="1" source="382b91b5511bd0f7-1" target="2a3bc250acf0617d-7" edge="1">
          <mxGeometry relative="1" as="geometry">
            <mxPoint x="210" y="-45" as="targetPoint" />
          </mxGeometry>
        </mxCell>
        <mxCell id="SFfb35-ShU-kt1pV6KI9-3" value="Confirma remoção de pacotes" style="edgeLabel;html=1;align=center;verticalAlign=middle;resizable=0;points=[];" parent="2a3bc250acf0617d-9" vertex="1" connectable="0">
          <mxGeometry x="0.1244" y="-1" relative="1" as="geometry">
            <mxPoint as="offset" />
          </mxGeometry>
        </mxCell>
        <mxCell id="24f968d109e7d6b4-3" value="" style="ellipse;html=1;shape=endState;fillColor=#000000;strokeColor=#ff0000;rounded=1;shadow=0;comic=0;labelBackgroundColor=none;fontFamily=Verdana;fontSize=12;fontColor=#000000;align=center;" parent="1" vertex="1">
          <mxGeometry x="920" y="20" width="30" height="30" as="geometry" />
        </mxCell>
        <mxCell id="SFfb35-ShU-kt1pV6KI9-63" value="" style="swimlane;fontStyle=0;childLayout=stackLayout;horizontal=1;startSize=20;fillColor=none;horizontalStack=0;resizeParent=1;resizeParentMax=0;resizeLast=0;collapsible=1;marginBottom=0;whiteSpace=wrap;html=1;" parent="1" vertex="1">
          <mxGeometry x="50" y="490" width="140" height="74" as="geometry">
            <mxRectangle x="50" y="490" width="100" height="30" as="alternateBounds" />
          </mxGeometry>
        </mxCell>
        <mxCell id="SFfb35-ShU-kt1pV6KI9-64" value="+ Sobe elevador para a posição de coleta;&lt;div&gt;+ Avança facas;&lt;/div&gt;" style="text;strokeColor=none;fillColor=none;align=left;verticalAlign=top;spacingLeft=4;spacingRight=4;overflow=hidden;rotatable=0;points=[[0,0.5],[1,0.5]];portConstraint=eastwest;whiteSpace=wrap;html=1;" parent="SFfb35-ShU-kt1pV6KI9-63" vertex="1">
          <mxGeometry y="20" width="140" height="54" as="geometry" />
        </mxCell>
      </root>
    </mxGraphModel>
  </diagram>
  <diagram name="Separação para flat motor" id="CQH3B2UCVACB7FhE8Isc">
    <mxGraphModel dx="1985" dy="869" grid="1" gridSize="10" guides="1" tooltips="1" connect="1" arrows="1" fold="1" page="1" pageScale="1" pageWidth="1100" pageHeight="850" background="none" math="0" shadow="0">
      <root>
        <mxCell id="08tAAsPuWwFqKLCVwlvJ-0" />
        <mxCell id="08tAAsPuWwFqKLCVwlvJ-1" parent="08tAAsPuWwFqKLCVwlvJ-0" />
        <mxCell id="08tAAsPuWwFqKLCVwlvJ-2" value="" style="ellipse;html=1;shape=startState;fillColor=#000000;strokeColor=#ff0000;rounded=1;shadow=0;comic=0;labelBackgroundColor=none;fontFamily=Verdana;fontSize=12;fontColor=#000000;align=center;direction=south;" parent="08tAAsPuWwFqKLCVwlvJ-1" vertex="1">
          <mxGeometry x="20" y="20" width="30" height="30" as="geometry" />
        </mxCell>
        <mxCell id="08tAAsPuWwFqKLCVwlvJ-3" style="edgeStyle=orthogonalEdgeStyle;rounded=0;orthogonalLoop=1;jettySize=auto;html=1;exitX=0.75;exitY=0;exitDx=0;exitDy=0;entryX=0;entryY=0.5;entryDx=0;entryDy=0;" parent="08tAAsPuWwFqKLCVwlvJ-1" source="08tAAsPuWwFqKLCVwlvJ-5" target="08tAAsPuWwFqKLCVwlvJ-79" edge="1">
          <mxGeometry relative="1" as="geometry" />
        </mxCell>
        <mxCell id="08tAAsPuWwFqKLCVwlvJ-4" value="Necessário limpar máquina" style="edgeLabel;html=1;align=center;verticalAlign=middle;resizable=0;points=[];" parent="08tAAsPuWwFqKLCVwlvJ-3" vertex="1" connectable="0">
          <mxGeometry x="-0.2583" y="2" relative="1" as="geometry">
            <mxPoint x="51" y="2" as="offset" />
          </mxGeometry>
        </mxCell>
        <mxCell id="08tAAsPuWwFqKLCVwlvJ-5" value="Ciclo automático separação para máquina com flat motor (falta fazer)" style="swimlane;whiteSpace=wrap;html=1;rounded=1;shadow=0;comic=0;labelBackgroundColor=none;strokeWidth=1;fontFamily=Verdana;fontSize=12;align=center;" parent="08tAAsPuWwFqKLCVwlvJ-1" vertex="1">
          <mxGeometry x="20" y="60" width="970" height="870" as="geometry" />
        </mxCell>
        <mxCell id="08tAAsPuWwFqKLCVwlvJ-6" style="edgeStyle=elbowEdgeStyle;html=1;labelBackgroundColor=none;endArrow=open;endSize=8;strokeColor=#ff0000;fontFamily=Verdana;fontSize=12;align=left;" parent="08tAAsPuWwFqKLCVwlvJ-5" source="08tAAsPuWwFqKLCVwlvJ-8" target="08tAAsPuWwFqKLCVwlvJ-13" edge="1">
          <mxGeometry relative="1" as="geometry" />
        </mxCell>
        <mxCell id="08tAAsPuWwFqKLCVwlvJ-7" value="Segurança ok" style="edgeLabel;html=1;align=center;verticalAlign=middle;resizable=0;points=[];" parent="08tAAsPuWwFqKLCVwlvJ-6" vertex="1" connectable="0">
          <mxGeometry x="0.12" y="1" relative="1" as="geometry">
            <mxPoint x="-5" y="1" as="offset" />
          </mxGeometry>
        </mxCell>
        <mxCell id="08tAAsPuWwFqKLCVwlvJ-8" value="Desligada" style="rounded=1;whiteSpace=wrap;html=1;arcSize=24;fillColor=#ffffc0;strokeColor=#ff0000;shadow=0;comic=0;labelBackgroundColor=none;fontFamily=Verdana;fontSize=12;fontColor=#000000;align=center;" parent="08tAAsPuWwFqKLCVwlvJ-5" vertex="1">
          <mxGeometry x="95" y="65" width="120" height="60" as="geometry" />
        </mxCell>
        <mxCell id="08tAAsPuWwFqKLCVwlvJ-9" style="edgeStyle=elbowEdgeStyle;html=1;labelBackgroundColor=none;endArrow=open;endSize=8;strokeColor=#ff0000;fontFamily=Verdana;fontSize=12;align=left;" parent="08tAAsPuWwFqKLCVwlvJ-5" source="08tAAsPuWwFqKLCVwlvJ-10" target="08tAAsPuWwFqKLCVwlvJ-8" edge="1">
          <mxGeometry relative="1" as="geometry" />
        </mxCell>
        <mxCell id="08tAAsPuWwFqKLCVwlvJ-10" value="" style="ellipse;html=1;shape=startState;fillColor=#000000;strokeColor=#ff0000;rounded=1;shadow=0;comic=0;labelBackgroundColor=none;fontFamily=Verdana;fontSize=12;fontColor=#000000;align=center;direction=south;" parent="08tAAsPuWwFqKLCVwlvJ-5" vertex="1">
          <mxGeometry x="30" y="80" width="30" height="30" as="geometry" />
        </mxCell>
        <mxCell id="08tAAsPuWwFqKLCVwlvJ-11" style="edgeStyle=elbowEdgeStyle;html=1;labelBackgroundColor=none;endArrow=open;endSize=8;strokeColor=#ff0000;fontFamily=Verdana;fontSize=12;align=left;" parent="08tAAsPuWwFqKLCVwlvJ-5" source="08tAAsPuWwFqKLCVwlvJ-13" target="08tAAsPuWwFqKLCVwlvJ-17" edge="1">
          <mxGeometry relative="1" as="geometry" />
        </mxCell>
        <mxCell id="08tAAsPuWwFqKLCVwlvJ-12" value="Operar" style="edgeLabel;html=1;align=center;verticalAlign=middle;resizable=0;points=[];" parent="08tAAsPuWwFqKLCVwlvJ-11" vertex="1" connectable="0">
          <mxGeometry x="-0.3434" y="-1" relative="1" as="geometry">
            <mxPoint x="17" y="-1" as="offset" />
          </mxGeometry>
        </mxCell>
        <mxCell id="08tAAsPuWwFqKLCVwlvJ-13" value="Standby" style="rounded=1;whiteSpace=wrap;html=1;arcSize=24;fillColor=#ffffc0;strokeColor=#ff0000;shadow=0;comic=0;labelBackgroundColor=none;fontFamily=Verdana;fontSize=12;fontColor=#000000;align=center;" parent="08tAAsPuWwFqKLCVwlvJ-5" vertex="1">
          <mxGeometry x="320" y="65" width="120" height="60" as="geometry" />
        </mxCell>
        <mxCell id="08tAAsPuWwFqKLCVwlvJ-14" value="" style="edgeStyle=orthogonalEdgeStyle;rounded=0;orthogonalLoop=1;jettySize=auto;html=1;" parent="08tAAsPuWwFqKLCVwlvJ-5" source="08tAAsPuWwFqKLCVwlvJ-17" target="08tAAsPuWwFqKLCVwlvJ-24" edge="1">
          <mxGeometry relative="1" as="geometry" />
        </mxCell>
        <mxCell id="08tAAsPuWwFqKLCVwlvJ-15" value="Text" style="edgeLabel;html=1;align=center;verticalAlign=middle;resizable=0;points=[];" parent="08tAAsPuWwFqKLCVwlvJ-14" vertex="1" connectable="0">
          <mxGeometry x="-0.16" y="-1" relative="1" as="geometry">
            <mxPoint as="offset" />
          </mxGeometry>
        </mxCell>
        <mxCell id="08tAAsPuWwFqKLCVwlvJ-16" value="Posicionou" style="edgeLabel;html=1;align=center;verticalAlign=middle;resizable=0;points=[];" parent="08tAAsPuWwFqKLCVwlvJ-14" vertex="1" connectable="0">
          <mxGeometry x="-0.11" relative="1" as="geometry">
            <mxPoint as="offset" />
          </mxGeometry>
        </mxCell>
        <mxCell id="08tAAsPuWwFqKLCVwlvJ-17" value="Posicionando&lt;div&gt;eixos&lt;/div&gt;" style="rounded=1;whiteSpace=wrap;html=1;arcSize=24;fillColor=#ffffc0;strokeColor=#ff0000;shadow=0;comic=0;labelBackgroundColor=none;fontFamily=Verdana;fontSize=12;fontColor=#000000;align=center;" parent="08tAAsPuWwFqKLCVwlvJ-5" vertex="1">
          <mxGeometry x="530" y="65" width="120" height="60" as="geometry" />
        </mxCell>
        <mxCell id="08tAAsPuWwFqKLCVwlvJ-18" value="" style="swimlane;fontStyle=0;childLayout=stackLayout;horizontal=1;startSize=15;fillColor=none;horizontalStack=0;resizeParent=1;resizeParentMax=0;resizeLast=0;collapsible=1;marginBottom=0;whiteSpace=wrap;html=1;" parent="08tAAsPuWwFqKLCVwlvJ-5" vertex="1" collapsed="1">
          <mxGeometry x="320" y="125" width="100" height="30" as="geometry">
            <mxRectangle x="320" y="125" width="210" height="69" as="alternateBounds" />
          </mxGeometry>
        </mxCell>
        <mxCell id="08tAAsPuWwFqKLCVwlvJ-19" value="+ atualiza o tamanho da separação;&lt;div&gt;+ atualiza a quantidade de giros;&lt;/div&gt;" style="text;strokeColor=none;fillColor=none;align=left;verticalAlign=top;spacingLeft=4;spacingRight=4;overflow=hidden;rotatable=0;points=[[0,0.5],[1,0.5]];portConstraint=eastwest;whiteSpace=wrap;html=1;" parent="08tAAsPuWwFqKLCVwlvJ-18" vertex="1">
          <mxGeometry y="15" width="210" height="54" as="geometry" />
        </mxCell>
        <mxCell id="08tAAsPuWwFqKLCVwlvJ-20" value="" style="swimlane;fontStyle=0;childLayout=stackLayout;horizontal=1;startSize=15;fillColor=none;horizontalStack=0;resizeParent=1;resizeParentMax=0;resizeLast=0;collapsible=1;marginBottom=0;whiteSpace=wrap;html=1;" parent="08tAAsPuWwFqKLCVwlvJ-5" vertex="1" collapsed="1">
          <mxGeometry x="530" y="125" width="100" height="30" as="geometry">
            <mxRectangle x="530" y="125" width="140" height="69" as="alternateBounds" />
          </mxGeometry>
        </mxCell>
        <mxCell id="08tAAsPuWwFqKLCVwlvJ-21" value="+ posiciona o giro em 0;&lt;div&gt;+ posiciona o elevador;&lt;/div&gt;" style="text;strokeColor=none;fillColor=none;align=left;verticalAlign=top;spacingLeft=4;spacingRight=4;overflow=hidden;rotatable=0;points=[[0,0.5],[1,0.5]];portConstraint=eastwest;whiteSpace=wrap;html=1;" parent="08tAAsPuWwFqKLCVwlvJ-20" vertex="1">
          <mxGeometry y="15" width="140" height="54" as="geometry" />
        </mxCell>
        <mxCell id="08tAAsPuWwFqKLCVwlvJ-22" value="" style="edgeStyle=orthogonalEdgeStyle;rounded=0;orthogonalLoop=1;jettySize=auto;html=1;" parent="08tAAsPuWwFqKLCVwlvJ-5" source="08tAAsPuWwFqKLCVwlvJ-24" target="08tAAsPuWwFqKLCVwlvJ-25" edge="1">
          <mxGeometry relative="1" as="geometry" />
        </mxCell>
        <mxCell id="08tAAsPuWwFqKLCVwlvJ-23" value="Avançou" style="edgeLabel;html=1;align=center;verticalAlign=middle;resizable=0;points=[];" parent="08tAAsPuWwFqKLCVwlvJ-22" vertex="1" connectable="0">
          <mxGeometry x="0.04" y="-2" relative="1" as="geometry">
            <mxPoint as="offset" />
          </mxGeometry>
        </mxCell>
        <mxCell id="08tAAsPuWwFqKLCVwlvJ-24" value="Avançando porta&lt;div&gt;chapas&lt;/div&gt;" style="rounded=1;whiteSpace=wrap;html=1;arcSize=24;fillColor=#ffffc0;strokeColor=#ff0000;shadow=0;comic=0;labelBackgroundColor=none;fontFamily=Verdana;fontSize=12;fontColor=#000000;align=center;" parent="08tAAsPuWwFqKLCVwlvJ-5" vertex="1">
          <mxGeometry x="740" y="65" width="120" height="60" as="geometry" />
        </mxCell>
        <mxCell id="Vbrwwq7bHWmCFlaQoOO8-9" value="" style="edgeStyle=orthogonalEdgeStyle;rounded=0;orthogonalLoop=1;jettySize=auto;html=1;entryX=1;entryY=0.5;entryDx=0;entryDy=0;" edge="1" parent="08tAAsPuWwFqKLCVwlvJ-5" source="08tAAsPuWwFqKLCVwlvJ-25" target="08tAAsPuWwFqKLCVwlvJ-35">
          <mxGeometry relative="1" as="geometry">
            <mxPoint x="680" y="240" as="targetPoint" />
          </mxGeometry>
        </mxCell>
        <mxCell id="Vbrwwq7bHWmCFlaQoOO8-10" value="Recuou" style="edgeLabel;html=1;align=center;verticalAlign=middle;resizable=0;points=[];" vertex="1" connectable="0" parent="Vbrwwq7bHWmCFlaQoOO8-9">
          <mxGeometry x="0.1429" y="2" relative="1" as="geometry">
            <mxPoint x="6" y="-3" as="offset" />
          </mxGeometry>
        </mxCell>
        <mxCell id="08tAAsPuWwFqKLCVwlvJ-25" value="Recuando facas" style="rounded=1;whiteSpace=wrap;html=1;arcSize=24;fillColor=#ffffc0;strokeColor=#ff0000;shadow=0;comic=0;labelBackgroundColor=none;fontFamily=Verdana;fontSize=12;fontColor=#000000;align=center;" parent="08tAAsPuWwFqKLCVwlvJ-5" vertex="1">
          <mxGeometry x="740" y="210" width="120" height="60" as="geometry" />
        </mxCell>
        <mxCell id="08tAAsPuWwFqKLCVwlvJ-26" value="" style="edgeStyle=orthogonalEdgeStyle;rounded=0;orthogonalLoop=1;jettySize=auto;html=1;entryX=1;entryY=0.5;entryDx=0;entryDy=0;" parent="08tAAsPuWwFqKLCVwlvJ-5" source="08tAAsPuWwFqKLCVwlvJ-28" target="08tAAsPuWwFqKLCVwlvJ-47" edge="1">
          <mxGeometry relative="1" as="geometry">
            <mxPoint x="240" y="240" as="targetPoint" />
          </mxGeometry>
        </mxCell>
        <mxCell id="08tAAsPuWwFqKLCVwlvJ-27" value="ajustou" style="edgeLabel;html=1;align=center;verticalAlign=middle;resizable=0;points=[];" parent="08tAAsPuWwFqKLCVwlvJ-26" vertex="1" connectable="0">
          <mxGeometry x="-0.04" relative="1" as="geometry">
            <mxPoint as="offset" />
          </mxGeometry>
        </mxCell>
        <mxCell id="08tAAsPuWwFqKLCVwlvJ-28" value="Ajustando&lt;div&gt;posições&lt;/div&gt;" style="rounded=1;whiteSpace=wrap;html=1;arcSize=24;fillColor=#ffffc0;strokeColor=#ff0000;shadow=0;comic=0;labelBackgroundColor=none;fontFamily=Verdana;fontSize=12;fontColor=#000000;align=center;" parent="08tAAsPuWwFqKLCVwlvJ-5" vertex="1">
          <mxGeometry x="320" y="210" width="120" height="60" as="geometry" />
        </mxCell>
        <mxCell id="08tAAsPuWwFqKLCVwlvJ-31" value="" style="edgeStyle=orthogonalEdgeStyle;rounded=0;orthogonalLoop=1;jettySize=auto;html=1;" parent="08tAAsPuWwFqKLCVwlvJ-5" source="08tAAsPuWwFqKLCVwlvJ-35" target="08tAAsPuWwFqKLCVwlvJ-28" edge="1">
          <mxGeometry relative="1" as="geometry" />
        </mxCell>
        <mxCell id="08tAAsPuWwFqKLCVwlvJ-32" value="Não" style="edgeLabel;html=1;align=center;verticalAlign=middle;resizable=0;points=[];" parent="08tAAsPuWwFqKLCVwlvJ-31" vertex="1" connectable="0">
          <mxGeometry x="0.1388" y="-1" relative="1" as="geometry">
            <mxPoint as="offset" />
          </mxGeometry>
        </mxCell>
        <mxCell id="08tAAsPuWwFqKLCVwlvJ-33" style="edgeStyle=orthogonalEdgeStyle;rounded=0;orthogonalLoop=1;jettySize=auto;html=1;exitX=0.5;exitY=1;exitDx=0;exitDy=0;entryX=0.5;entryY=0;entryDx=0;entryDy=0;" parent="08tAAsPuWwFqKLCVwlvJ-5" source="08tAAsPuWwFqKLCVwlvJ-35" target="08tAAsPuWwFqKLCVwlvJ-64" edge="1">
          <mxGeometry relative="1" as="geometry">
            <Array as="points">
              <mxPoint x="590" y="732" />
            </Array>
          </mxGeometry>
        </mxCell>
        <mxCell id="08tAAsPuWwFqKLCVwlvJ-34" value="Sim" style="edgeLabel;html=1;align=center;verticalAlign=middle;resizable=0;points=[];" parent="08tAAsPuWwFqKLCVwlvJ-33" vertex="1" connectable="0">
          <mxGeometry x="-0.8137" y="1" relative="1" as="geometry">
            <mxPoint as="offset" />
          </mxGeometry>
        </mxCell>
        <mxCell id="08tAAsPuWwFqKLCVwlvJ-35" value="Pacote&#xa;montado?" style="rhombus;" parent="08tAAsPuWwFqKLCVwlvJ-5" vertex="1">
          <mxGeometry x="545" y="195" width="90" height="90" as="geometry" />
        </mxCell>
        <mxCell id="08tAAsPuWwFqKLCVwlvJ-36" value="Ajustando" style="swimlane;fontStyle=0;childLayout=stackLayout;horizontal=1;startSize=20;fillColor=none;horizontalStack=0;resizeParent=1;resizeParentMax=0;resizeLast=0;collapsible=1;marginBottom=0;whiteSpace=wrap;html=1;" parent="08tAAsPuWwFqKLCVwlvJ-5" vertex="1" collapsed="1">
          <mxGeometry x="320" y="270" width="100" height="30" as="geometry">
            <mxRectangle x="320" y="270" width="150" height="74" as="alternateBounds" />
          </mxGeometry>
        </mxCell>
        <mxCell id="08tAAsPuWwFqKLCVwlvJ-37" value="+ posiciona o elevador na posição de giro;&lt;div&gt;+ posiciona a separação;&lt;/div&gt;" style="text;strokeColor=none;fillColor=none;align=left;verticalAlign=top;spacingLeft=4;spacingRight=4;overflow=hidden;rotatable=0;points=[[0,0.5],[1,0.5]];portConstraint=eastwest;whiteSpace=wrap;html=1;" parent="08tAAsPuWwFqKLCVwlvJ-36" vertex="1">
          <mxGeometry y="20" width="150" height="54" as="geometry" />
        </mxCell>
        <mxCell id="Vbrwwq7bHWmCFlaQoOO8-32" style="edgeStyle=orthogonalEdgeStyle;rounded=0;orthogonalLoop=1;jettySize=auto;html=1;exitX=0.5;exitY=1;exitDx=0;exitDy=0;entryX=0.5;entryY=0;entryDx=0;entryDy=0;" edge="1" parent="08tAAsPuWwFqKLCVwlvJ-5" source="08tAAsPuWwFqKLCVwlvJ-47" target="Vbrwwq7bHWmCFlaQoOO8-25">
          <mxGeometry relative="1" as="geometry">
            <mxPoint x="195" y="285" as="sourcePoint" />
          </mxGeometry>
        </mxCell>
        <mxCell id="Vbrwwq7bHWmCFlaQoOO8-33" value="Tem chapa" style="edgeLabel;html=1;align=center;verticalAlign=middle;resizable=0;points=[];" vertex="1" connectable="0" parent="Vbrwwq7bHWmCFlaQoOO8-32">
          <mxGeometry x="-0.2937" y="-1" relative="1" as="geometry">
            <mxPoint as="offset" />
          </mxGeometry>
        </mxCell>
        <mxCell id="08tAAsPuWwFqKLCVwlvJ-43" value="" style="edgeStyle=orthogonalEdgeStyle;rounded=0;orthogonalLoop=1;jettySize=auto;html=1;" parent="08tAAsPuWwFqKLCVwlvJ-5" source="08tAAsPuWwFqKLCVwlvJ-45" target="08tAAsPuWwFqKLCVwlvJ-50" edge="1">
          <mxGeometry relative="1" as="geometry" />
        </mxCell>
        <mxCell id="08tAAsPuWwFqKLCVwlvJ-44" value="Avançou&lt;div&gt;facas&lt;/div&gt;" style="edgeLabel;html=1;align=center;verticalAlign=middle;resizable=0;points=[];" parent="08tAAsPuWwFqKLCVwlvJ-43" vertex="1" connectable="0">
          <mxGeometry x="-0.1782" y="1" relative="1" as="geometry">
            <mxPoint as="offset" />
          </mxGeometry>
        </mxCell>
        <mxCell id="08tAAsPuWwFqKLCVwlvJ-45" value="Separando" style="rounded=1;whiteSpace=wrap;html=1;arcSize=24;fillColor=#ffffc0;strokeColor=#ff0000;shadow=0;comic=0;labelBackgroundColor=none;fontFamily=Verdana;fontSize=12;fontColor=#000000;align=center;" parent="08tAAsPuWwFqKLCVwlvJ-5" vertex="1">
          <mxGeometry x="30" y="557" width="120" height="60" as="geometry" />
        </mxCell>
        <mxCell id="08tAAsPuWwFqKLCVwlvJ-47" value="Aguardando&lt;div&gt;chapa&lt;/div&gt;" style="rounded=1;whiteSpace=wrap;html=1;arcSize=24;fillColor=#ffffc0;strokeColor=#ff0000;shadow=0;comic=0;labelBackgroundColor=none;fontFamily=Verdana;fontSize=12;fontColor=#000000;align=center;" parent="08tAAsPuWwFqKLCVwlvJ-5" vertex="1">
          <mxGeometry x="30" y="210" width="120" height="60" as="geometry" />
        </mxCell>
        <mxCell id="08tAAsPuWwFqKLCVwlvJ-48" value="" style="edgeStyle=orthogonalEdgeStyle;rounded=0;orthogonalLoop=1;jettySize=auto;html=1;" parent="08tAAsPuWwFqKLCVwlvJ-5" source="08tAAsPuWwFqKLCVwlvJ-50" target="08tAAsPuWwFqKLCVwlvJ-55" edge="1">
          <mxGeometry relative="1" as="geometry" />
        </mxCell>
        <mxCell id="08tAAsPuWwFqKLCVwlvJ-49" value="Transferiu" style="edgeLabel;html=1;align=center;verticalAlign=middle;resizable=0;points=[];" parent="08tAAsPuWwFqKLCVwlvJ-48" vertex="1" connectable="0">
          <mxGeometry x="-0.2727" relative="1" as="geometry">
            <mxPoint x="10" as="offset" />
          </mxGeometry>
        </mxCell>
        <mxCell id="08tAAsPuWwFqKLCVwlvJ-50" value="Transferindo&lt;div&gt;elevador&lt;/div&gt;" style="rounded=1;whiteSpace=wrap;html=1;arcSize=24;fillColor=#ffffc0;strokeColor=#ff0000;shadow=0;comic=0;labelBackgroundColor=none;fontFamily=Verdana;fontSize=12;fontColor=#000000;align=center;" parent="08tAAsPuWwFqKLCVwlvJ-5" vertex="1">
          <mxGeometry x="240" y="557" width="120" height="60" as="geometry" />
        </mxCell>
        <mxCell id="08tAAsPuWwFqKLCVwlvJ-51" value="" style="swimlane;fontStyle=0;childLayout=stackLayout;horizontal=1;startSize=20;fillColor=none;horizontalStack=0;resizeParent=1;resizeParentMax=0;resizeLast=0;collapsible=1;marginBottom=0;whiteSpace=wrap;html=1;" parent="08tAAsPuWwFqKLCVwlvJ-5" vertex="1" collapsed="1">
          <mxGeometry x="240" y="617" width="100" height="30" as="geometry">
            <mxRectangle x="240" y="617" width="140" height="74" as="alternateBounds" />
          </mxGeometry>
        </mxCell>
        <mxCell id="08tAAsPuWwFqKLCVwlvJ-52" value="+ Abre porta de chapas;&lt;div&gt;+ conta separações feitas (giros realizados);&lt;/div&gt;" style="text;strokeColor=none;fillColor=none;align=left;verticalAlign=top;spacingLeft=4;spacingRight=4;overflow=hidden;rotatable=0;points=[[0,0.5],[1,0.5]];portConstraint=eastwest;whiteSpace=wrap;html=1;" parent="08tAAsPuWwFqKLCVwlvJ-51" vertex="1">
          <mxGeometry y="20" width="140" height="54" as="geometry" />
        </mxCell>
        <mxCell id="08tAAsPuWwFqKLCVwlvJ-53" value="" style="edgeStyle=orthogonalEdgeStyle;rounded=0;orthogonalLoop=1;jettySize=auto;html=1;" parent="08tAAsPuWwFqKLCVwlvJ-5" source="08tAAsPuWwFqKLCVwlvJ-55" target="08tAAsPuWwFqKLCVwlvJ-60" edge="1">
          <mxGeometry relative="1" as="geometry" />
        </mxCell>
        <mxCell id="08tAAsPuWwFqKLCVwlvJ-54" value="Setou" style="edgeLabel;html=1;align=center;verticalAlign=middle;resizable=0;points=[];" parent="08tAAsPuWwFqKLCVwlvJ-53" vertex="1" connectable="0">
          <mxGeometry x="-0.0444" y="4" relative="1" as="geometry">
            <mxPoint y="3" as="offset" />
          </mxGeometry>
        </mxCell>
        <mxCell id="08tAAsPuWwFqKLCVwlvJ-55" value="Calculando giro" style="rounded=1;whiteSpace=wrap;html=1;arcSize=24;fillColor=#ffffc0;strokeColor=#ff0000;shadow=0;comic=0;labelBackgroundColor=none;fontFamily=Verdana;fontSize=12;fontColor=#000000;align=center;" parent="08tAAsPuWwFqKLCVwlvJ-5" vertex="1">
          <mxGeometry x="460" y="557" width="120" height="60" as="geometry" />
        </mxCell>
        <mxCell id="08tAAsPuWwFqKLCVwlvJ-56" value="" style="swimlane;fontStyle=0;childLayout=stackLayout;horizontal=1;startSize=20;fillColor=none;horizontalStack=0;resizeParent=1;resizeParentMax=0;resizeLast=0;collapsible=1;marginBottom=0;whiteSpace=wrap;html=1;" parent="08tAAsPuWwFqKLCVwlvJ-5" vertex="1" collapsed="1">
          <mxGeometry x="460" y="617" width="100" height="30" as="geometry">
            <mxRectangle x="490" y="555" width="130" height="74" as="alternateBounds" />
          </mxGeometry>
        </mxCell>
        <mxCell id="08tAAsPuWwFqKLCVwlvJ-57" value="+ Seta posição para o eixo do giro;" style="text;strokeColor=none;fillColor=none;align=left;verticalAlign=top;spacingLeft=4;spacingRight=4;overflow=hidden;rotatable=0;points=[[0,0.5],[1,0.5]];portConstraint=eastwest;whiteSpace=wrap;html=1;" parent="08tAAsPuWwFqKLCVwlvJ-56" vertex="1">
          <mxGeometry y="20" width="130" height="54" as="geometry" />
        </mxCell>
        <mxCell id="Vbrwwq7bHWmCFlaQoOO8-47" style="edgeStyle=orthogonalEdgeStyle;rounded=0;orthogonalLoop=1;jettySize=auto;html=1;exitX=1;exitY=0.5;exitDx=0;exitDy=0;entryX=0.5;entryY=1;entryDx=0;entryDy=0;" edge="1" parent="08tAAsPuWwFqKLCVwlvJ-5" source="08tAAsPuWwFqKLCVwlvJ-60" target="Vbrwwq7bHWmCFlaQoOO8-46">
          <mxGeometry relative="1" as="geometry">
            <mxPoint x="875" y="557" as="targetPoint" />
          </mxGeometry>
        </mxCell>
        <mxCell id="Vbrwwq7bHWmCFlaQoOO8-48" value="Posicionou" style="edgeLabel;html=1;align=center;verticalAlign=middle;resizable=0;points=[];" vertex="1" connectable="0" parent="Vbrwwq7bHWmCFlaQoOO8-47">
          <mxGeometry x="-0.6817" y="-3" relative="1" as="geometry">
            <mxPoint x="9" y="-2" as="offset" />
          </mxGeometry>
        </mxCell>
        <mxCell id="08tAAsPuWwFqKLCVwlvJ-60" value="Girando" style="rounded=1;whiteSpace=wrap;html=1;arcSize=24;fillColor=#ffffc0;strokeColor=#ff0000;shadow=0;comic=0;labelBackgroundColor=none;fontFamily=Verdana;fontSize=12;fontColor=#000000;align=center;" parent="08tAAsPuWwFqKLCVwlvJ-5" vertex="1">
          <mxGeometry x="680" y="557" width="120" height="60" as="geometry" />
        </mxCell>
        <mxCell id="08tAAsPuWwFqKLCVwlvJ-61" value="" style="swimlane;fontStyle=0;childLayout=stackLayout;horizontal=1;startSize=20;fillColor=none;horizontalStack=0;resizeParent=1;resizeParentMax=0;resizeLast=0;collapsible=1;marginBottom=0;whiteSpace=wrap;html=1;" parent="08tAAsPuWwFqKLCVwlvJ-5" vertex="1" collapsed="1">
          <mxGeometry x="680" y="617" width="100" height="30" as="geometry">
            <mxRectangle x="680" y="617" width="150" height="90" as="alternateBounds" />
          </mxGeometry>
        </mxCell>
        <mxCell id="08tAAsPuWwFqKLCVwlvJ-62" value="+ Desce elevador para a posição de trabalho (giro);&lt;div&gt;+ Gira se o pacote não estiver finalizado;&lt;/div&gt;" style="text;strokeColor=none;fillColor=none;align=left;verticalAlign=top;spacingLeft=4;spacingRight=4;overflow=hidden;rotatable=0;points=[[0,0.5],[1,0.5]];portConstraint=eastwest;whiteSpace=wrap;html=1;" parent="08tAAsPuWwFqKLCVwlvJ-61" vertex="1">
          <mxGeometry y="20" width="150" height="70" as="geometry" />
        </mxCell>
        <mxCell id="08tAAsPuWwFqKLCVwlvJ-63" value="" style="edgeStyle=orthogonalEdgeStyle;rounded=0;orthogonalLoop=1;jettySize=auto;html=1;" parent="08tAAsPuWwFqKLCVwlvJ-5" source="08tAAsPuWwFqKLCVwlvJ-64" target="08tAAsPuWwFqKLCVwlvJ-69" edge="1">
          <mxGeometry relative="1" as="geometry" />
        </mxCell>
        <mxCell id="08tAAsPuWwFqKLCVwlvJ-64" value="Descarregando" style="rounded=1;whiteSpace=wrap;html=1;arcSize=24;fillColor=#ffffc0;strokeColor=#ff0000;shadow=0;comic=0;labelBackgroundColor=none;fontFamily=Verdana;fontSize=12;fontColor=#000000;align=center;" parent="08tAAsPuWwFqKLCVwlvJ-5" vertex="1">
          <mxGeometry x="530" y="732" width="120" height="60" as="geometry" />
        </mxCell>
        <mxCell id="08tAAsPuWwFqKLCVwlvJ-65" value="" style="swimlane;fontStyle=0;childLayout=stackLayout;horizontal=1;startSize=20;fillColor=none;horizontalStack=0;resizeParent=1;resizeParentMax=0;resizeLast=0;collapsible=1;marginBottom=0;whiteSpace=wrap;html=1;" parent="08tAAsPuWwFqKLCVwlvJ-5" vertex="1" collapsed="1">
          <mxGeometry x="530" y="792" width="100" height="30" as="geometry">
            <mxRectangle x="690" y="792" width="150" height="120" as="alternateBounds" />
          </mxGeometry>
        </mxCell>
        <mxCell id="08tAAsPuWwFqKLCVwlvJ-66" value="+ Gira para a posição inicial;&lt;br&gt;&lt;div&gt;+ Desce pacote para a esteira;&lt;/div&gt;&lt;div&gt;+ Ajusta o esixo de separação&lt;/div&gt;" style="text;strokeColor=none;fillColor=none;align=left;verticalAlign=top;spacingLeft=4;spacingRight=4;overflow=hidden;rotatable=0;points=[[0,0.5],[1,0.5]];portConstraint=eastwest;whiteSpace=wrap;html=1;" parent="08tAAsPuWwFqKLCVwlvJ-65" vertex="1">
          <mxGeometry y="20" width="150" height="100" as="geometry" />
        </mxCell>
        <mxCell id="08tAAsPuWwFqKLCVwlvJ-67" value="" style="edgeStyle=orthogonalEdgeStyle;rounded=0;orthogonalLoop=1;jettySize=auto;html=1;" parent="08tAAsPuWwFqKLCVwlvJ-5" source="08tAAsPuWwFqKLCVwlvJ-69" target="08tAAsPuWwFqKLCVwlvJ-76" edge="1">
          <mxGeometry relative="1" as="geometry" />
        </mxCell>
        <mxCell id="08tAAsPuWwFqKLCVwlvJ-68" value="Esteira&lt;div&gt;retirou&lt;/div&gt;" style="edgeLabel;html=1;align=center;verticalAlign=middle;resizable=0;points=[];" parent="08tAAsPuWwFqKLCVwlvJ-67" vertex="1" connectable="0">
          <mxGeometry x="-0.0667" y="-1" relative="1" as="geometry">
            <mxPoint as="offset" />
          </mxGeometry>
        </mxCell>
        <mxCell id="08tAAsPuWwFqKLCVwlvJ-69" value="Aguardando saída&amp;nbsp;&lt;div&gt;da separação&lt;/div&gt;" style="rounded=1;whiteSpace=wrap;html=1;arcSize=24;fillColor=#ffffc0;strokeColor=#ff0000;shadow=0;comic=0;labelBackgroundColor=none;fontFamily=Verdana;fontSize=12;fontColor=#000000;align=center;" parent="08tAAsPuWwFqKLCVwlvJ-5" vertex="1">
          <mxGeometry x="330" y="732" width="120" height="60" as="geometry" />
        </mxCell>
        <mxCell id="08tAAsPuWwFqKLCVwlvJ-70" value="" style="swimlane;fontStyle=0;childLayout=stackLayout;horizontal=1;startSize=20;fillColor=none;horizontalStack=0;resizeParent=1;resizeParentMax=0;resizeLast=0;collapsible=1;marginBottom=0;whiteSpace=wrap;html=1;" parent="08tAAsPuWwFqKLCVwlvJ-5" vertex="1" collapsed="1">
          <mxGeometry x="330" y="792" width="100" height="30" as="geometry">
            <mxRectangle x="490" y="550" width="150" height="120" as="alternateBounds" />
          </mxGeometry>
        </mxCell>
        <mxCell id="08tAAsPuWwFqKLCVwlvJ-71" value="+ Atualiza o ajuste da receita;&lt;div&gt;&lt;br&gt;&lt;/div&gt;" style="text;strokeColor=none;fillColor=none;align=left;verticalAlign=top;spacingLeft=4;spacingRight=4;overflow=hidden;rotatable=0;points=[[0,0.5],[1,0.5]];portConstraint=eastwest;whiteSpace=wrap;html=1;" parent="08tAAsPuWwFqKLCVwlvJ-70" vertex="1">
          <mxGeometry y="20" width="150" height="100" as="geometry" />
        </mxCell>
        <mxCell id="08tAAsPuWwFqKLCVwlvJ-72" style="edgeStyle=orthogonalEdgeStyle;rounded=0;orthogonalLoop=1;jettySize=auto;html=1;exitX=0;exitY=0.5;exitDx=0;exitDy=0;entryX=0.25;entryY=0;entryDx=0;entryDy=0;" parent="08tAAsPuWwFqKLCVwlvJ-5" source="08tAAsPuWwFqKLCVwlvJ-76" target="08tAAsPuWwFqKLCVwlvJ-13" edge="1">
          <mxGeometry relative="1" as="geometry">
            <Array as="points">
              <mxPoint x="10" y="762" />
              <mxPoint x="10" y="45" />
              <mxPoint x="350" y="45" />
            </Array>
          </mxGeometry>
        </mxCell>
        <mxCell id="08tAAsPuWwFqKLCVwlvJ-73" value="Sim" style="edgeLabel;html=1;align=center;verticalAlign=middle;resizable=0;points=[];" parent="08tAAsPuWwFqKLCVwlvJ-72" vertex="1" connectable="0">
          <mxGeometry x="-0.9095" y="1" relative="1" as="geometry">
            <mxPoint as="offset" />
          </mxGeometry>
        </mxCell>
        <mxCell id="08tAAsPuWwFqKLCVwlvJ-74" style="edgeStyle=orthogonalEdgeStyle;rounded=0;orthogonalLoop=1;jettySize=auto;html=1;exitX=0.5;exitY=1;exitDx=0;exitDy=0;entryX=1;entryY=0.25;entryDx=0;entryDy=0;" parent="08tAAsPuWwFqKLCVwlvJ-5" source="08tAAsPuWwFqKLCVwlvJ-76" target="08tAAsPuWwFqKLCVwlvJ-24" edge="1">
          <mxGeometry relative="1" as="geometry">
            <Array as="points">
              <mxPoint x="166" y="840" />
              <mxPoint x="930" y="840" />
              <mxPoint x="930" y="80" />
            </Array>
          </mxGeometry>
        </mxCell>
        <mxCell id="08tAAsPuWwFqKLCVwlvJ-75" value="Não" style="edgeLabel;html=1;align=center;verticalAlign=middle;resizable=0;points=[];" parent="08tAAsPuWwFqKLCVwlvJ-74" vertex="1" connectable="0">
          <mxGeometry x="-0.9603" relative="1" as="geometry">
            <mxPoint as="offset" />
          </mxGeometry>
        </mxCell>
        <mxCell id="08tAAsPuWwFqKLCVwlvJ-76" value="Último&#xa;ciclo?" style="rhombus;" parent="08tAAsPuWwFqKLCVwlvJ-5" vertex="1">
          <mxGeometry x="120" y="717" width="90" height="90" as="geometry" />
        </mxCell>
        <mxCell id="Vbrwwq7bHWmCFlaQoOO8-30" style="edgeStyle=orthogonalEdgeStyle;rounded=0;orthogonalLoop=1;jettySize=auto;html=1;exitX=0.5;exitY=1;exitDx=0;exitDy=0;entryX=0.5;entryY=0;entryDx=0;entryDy=0;" edge="1" parent="08tAAsPuWwFqKLCVwlvJ-5" source="Vbrwwq7bHWmCFlaQoOO8-25" target="08tAAsPuWwFqKLCVwlvJ-45">
          <mxGeometry relative="1" as="geometry" />
        </mxCell>
        <mxCell id="Vbrwwq7bHWmCFlaQoOO8-31" value="Não" style="edgeLabel;html=1;align=center;verticalAlign=middle;resizable=0;points=[];" vertex="1" connectable="0" parent="Vbrwwq7bHWmCFlaQoOO8-30">
          <mxGeometry x="-0.1505" relative="1" as="geometry">
            <mxPoint as="offset" />
          </mxGeometry>
        </mxCell>
        <mxCell id="Vbrwwq7bHWmCFlaQoOO8-34" style="edgeStyle=orthogonalEdgeStyle;rounded=0;orthogonalLoop=1;jettySize=auto;html=1;exitX=1;exitY=0.5;exitDx=0;exitDy=0;entryX=0.5;entryY=0;entryDx=0;entryDy=0;" edge="1" parent="08tAAsPuWwFqKLCVwlvJ-5" source="Vbrwwq7bHWmCFlaQoOO8-25" target="08tAAsPuWwFqKLCVwlvJ-55">
          <mxGeometry relative="1" as="geometry" />
        </mxCell>
        <mxCell id="Vbrwwq7bHWmCFlaQoOO8-35" value="Sim" style="edgeLabel;html=1;align=center;verticalAlign=middle;resizable=0;points=[];" vertex="1" connectable="0" parent="Vbrwwq7bHWmCFlaQoOO8-34">
          <mxGeometry x="-0.7929" y="1" relative="1" as="geometry">
            <mxPoint as="offset" />
          </mxGeometry>
        </mxCell>
        <mxCell id="Vbrwwq7bHWmCFlaQoOO8-25" value="Flat motor?" style="rhombus;" vertex="1" parent="08tAAsPuWwFqKLCVwlvJ-5">
          <mxGeometry x="45" y="330" width="90" height="90" as="geometry" />
        </mxCell>
        <mxCell id="1tcNili6Vxrw5KVTQ2jo-3" style="edgeStyle=orthogonalEdgeStyle;rounded=0;orthogonalLoop=1;jettySize=auto;html=1;exitX=0;exitY=0.5;exitDx=0;exitDy=0;entryX=0.75;entryY=0;entryDx=0;entryDy=0;" edge="1" parent="08tAAsPuWwFqKLCVwlvJ-5" source="Vbrwwq7bHWmCFlaQoOO8-40" target="08tAAsPuWwFqKLCVwlvJ-45">
          <mxGeometry relative="1" as="geometry" />
        </mxCell>
        <mxCell id="1tcNili6Vxrw5KVTQ2jo-4" value="Sim" style="edgeLabel;html=1;align=center;verticalAlign=middle;resizable=0;points=[];" vertex="1" connectable="0" parent="1tcNili6Vxrw5KVTQ2jo-3">
          <mxGeometry x="-0.8957" y="-2" relative="1" as="geometry">
            <mxPoint x="-1" y="-1" as="offset" />
          </mxGeometry>
        </mxCell>
        <mxCell id="1tcNili6Vxrw5KVTQ2jo-5" style="edgeStyle=orthogonalEdgeStyle;rounded=0;orthogonalLoop=1;jettySize=auto;html=1;exitX=0.5;exitY=0;exitDx=0;exitDy=0;entryX=1;entryY=0.75;entryDx=0;entryDy=0;" edge="1" parent="08tAAsPuWwFqKLCVwlvJ-5" source="Vbrwwq7bHWmCFlaQoOO8-40" target="08tAAsPuWwFqKLCVwlvJ-24">
          <mxGeometry relative="1" as="geometry">
            <Array as="points">
              <mxPoint x="715" y="380" />
              <mxPoint x="890" y="380" />
              <mxPoint x="890" y="110" />
            </Array>
          </mxGeometry>
        </mxCell>
        <mxCell id="1tcNili6Vxrw5KVTQ2jo-6" value="Não" style="edgeLabel;html=1;align=center;verticalAlign=middle;resizable=0;points=[];" vertex="1" connectable="0" parent="1tcNili6Vxrw5KVTQ2jo-5">
          <mxGeometry x="-0.875" y="1" relative="1" as="geometry">
            <mxPoint x="1" as="offset" />
          </mxGeometry>
        </mxCell>
        <mxCell id="Vbrwwq7bHWmCFlaQoOO8-40" value="Flat motor?" style="rhombus;" vertex="1" parent="08tAAsPuWwFqKLCVwlvJ-5">
          <mxGeometry x="670" y="430" width="90" height="90" as="geometry" />
        </mxCell>
        <mxCell id="08tAAsPuWwFqKLCVwlvJ-80" value="" style="swimlane;fontStyle=0;childLayout=stackLayout;horizontal=1;startSize=20;fillColor=none;horizontalStack=0;resizeParent=1;resizeParentMax=0;resizeLast=0;collapsible=1;marginBottom=0;whiteSpace=wrap;html=1;" parent="08tAAsPuWwFqKLCVwlvJ-5" vertex="1" collapsed="1">
          <mxGeometry x="30" y="617" width="100" height="30" as="geometry">
            <mxRectangle x="30" y="555" width="140" height="74" as="alternateBounds" />
          </mxGeometry>
        </mxCell>
        <mxCell id="08tAAsPuWwFqKLCVwlvJ-81" value="+ Sobe elevador para a posição de coleta;&lt;div&gt;+ Avança facas;&lt;/div&gt;" style="text;strokeColor=none;fillColor=none;align=left;verticalAlign=top;spacingLeft=4;spacingRight=4;overflow=hidden;rotatable=0;points=[[0,0.5],[1,0.5]];portConstraint=eastwest;whiteSpace=wrap;html=1;" parent="08tAAsPuWwFqKLCVwlvJ-80" vertex="1">
          <mxGeometry y="20" width="140" height="54" as="geometry" />
        </mxCell>
        <mxCell id="Vbrwwq7bHWmCFlaQoOO8-51" style="edgeStyle=orthogonalEdgeStyle;rounded=0;orthogonalLoop=1;jettySize=auto;html=1;exitX=0.5;exitY=0;exitDx=0;exitDy=0;entryX=1;entryY=0.5;entryDx=0;entryDy=0;" edge="1" parent="08tAAsPuWwFqKLCVwlvJ-5" source="Vbrwwq7bHWmCFlaQoOO8-46" target="08tAAsPuWwFqKLCVwlvJ-24">
          <mxGeometry relative="1" as="geometry">
            <Array as="points">
              <mxPoint x="910" y="405" />
              <mxPoint x="910" y="95" />
            </Array>
          </mxGeometry>
        </mxCell>
        <mxCell id="Vbrwwq7bHWmCFlaQoOO8-52" value="Sim" style="edgeLabel;html=1;align=center;verticalAlign=middle;resizable=0;points=[];" vertex="1" connectable="0" parent="Vbrwwq7bHWmCFlaQoOO8-51">
          <mxGeometry x="-0.8931" y="2" relative="1" as="geometry">
            <mxPoint as="offset" />
          </mxGeometry>
        </mxCell>
        <mxCell id="1tcNili6Vxrw5KVTQ2jo-1" value="" style="edgeStyle=orthogonalEdgeStyle;rounded=0;orthogonalLoop=1;jettySize=auto;html=1;" edge="1" parent="08tAAsPuWwFqKLCVwlvJ-5" source="Vbrwwq7bHWmCFlaQoOO8-46" target="Vbrwwq7bHWmCFlaQoOO8-40">
          <mxGeometry relative="1" as="geometry" />
        </mxCell>
        <mxCell id="1tcNili6Vxrw5KVTQ2jo-2" value="Não" style="edgeLabel;html=1;align=center;verticalAlign=middle;resizable=0;points=[];" vertex="1" connectable="0" parent="1tcNili6Vxrw5KVTQ2jo-1">
          <mxGeometry x="0.0222" relative="1" as="geometry">
            <mxPoint x="6" as="offset" />
          </mxGeometry>
        </mxCell>
        <mxCell id="Vbrwwq7bHWmCFlaQoOO8-46" value="Pacote&#xa;montado?" style="rhombus;" vertex="1" parent="08tAAsPuWwFqKLCVwlvJ-5">
          <mxGeometry x="830" y="430" width="90" height="90" as="geometry" />
        </mxCell>
        <mxCell id="08tAAsPuWwFqKLCVwlvJ-77" style="edgeStyle=orthogonalEdgeStyle;html=1;labelBackgroundColor=none;endArrow=open;endSize=8;strokeColor=#ff0000;fontFamily=Verdana;fontSize=12;align=left;entryX=0.25;entryY=0;entryDx=0;entryDy=0;exitX=0.5;exitY=0;exitDx=0;exitDy=0;" parent="08tAAsPuWwFqKLCVwlvJ-1" source="08tAAsPuWwFqKLCVwlvJ-2" target="08tAAsPuWwFqKLCVwlvJ-5" edge="1">
          <mxGeometry relative="1" as="geometry">
            <mxPoint x="210" y="-45" as="targetPoint" />
          </mxGeometry>
        </mxCell>
        <mxCell id="08tAAsPuWwFqKLCVwlvJ-78" value="Confirma remoção de pacotes" style="edgeLabel;html=1;align=center;verticalAlign=middle;resizable=0;points=[];" parent="08tAAsPuWwFqKLCVwlvJ-77" vertex="1" connectable="0">
          <mxGeometry x="0.1244" y="-1" relative="1" as="geometry">
            <mxPoint as="offset" />
          </mxGeometry>
        </mxCell>
        <mxCell id="08tAAsPuWwFqKLCVwlvJ-79" value="" style="ellipse;html=1;shape=endState;fillColor=#000000;strokeColor=#ff0000;rounded=1;shadow=0;comic=0;labelBackgroundColor=none;fontFamily=Verdana;fontSize=12;fontColor=#000000;align=center;" parent="08tAAsPuWwFqKLCVwlvJ-1" vertex="1">
          <mxGeometry x="920" y="20" width="30" height="30" as="geometry" />
        </mxCell>
      </root>
    </mxGraphModel>
  </diagram>
  <diagram name="Medição" id="5ZW9fIiAVLEPgD6jX3zt">
    <mxGraphModel dx="1762" dy="821" grid="1" gridSize="10" guides="1" tooltips="1" connect="1" arrows="1" fold="1" page="1" pageScale="1" pageWidth="1100" pageHeight="850" background="none" math="0" shadow="0">
      <root>
        <mxCell id="bJJd7IoRdsxBlWUWBcWC-0" />
        <mxCell id="bJJd7IoRdsxBlWUWBcWC-1" parent="bJJd7IoRdsxBlWUWBcWC-0" />
        <mxCell id="bJJd7IoRdsxBlWUWBcWC-2" value="" style="ellipse;html=1;shape=startState;fillColor=#000000;strokeColor=#ff0000;rounded=1;shadow=0;comic=0;labelBackgroundColor=none;fontFamily=Verdana;fontSize=12;fontColor=#000000;align=center;direction=south;" vertex="1" parent="bJJd7IoRdsxBlWUWBcWC-1">
          <mxGeometry x="20" y="20" width="30" height="30" as="geometry" />
        </mxCell>
        <mxCell id="bJJd7IoRdsxBlWUWBcWC-3" style="edgeStyle=orthogonalEdgeStyle;rounded=0;orthogonalLoop=1;jettySize=auto;html=1;exitX=0.75;exitY=0;exitDx=0;exitDy=0;entryX=0;entryY=0.5;entryDx=0;entryDy=0;" edge="1" parent="bJJd7IoRdsxBlWUWBcWC-1" source="bJJd7IoRdsxBlWUWBcWC-5" target="bJJd7IoRdsxBlWUWBcWC-79">
          <mxGeometry relative="1" as="geometry" />
        </mxCell>
        <mxCell id="bJJd7IoRdsxBlWUWBcWC-4" value="Necessário limpar máquina" style="edgeLabel;html=1;align=center;verticalAlign=middle;resizable=0;points=[];" vertex="1" connectable="0" parent="bJJd7IoRdsxBlWUWBcWC-3">
          <mxGeometry x="-0.2583" y="2" relative="1" as="geometry">
            <mxPoint x="51" y="2" as="offset" />
          </mxGeometry>
        </mxCell>
        <mxCell id="bJJd7IoRdsxBlWUWBcWC-5" value="Ciclo automático separação" style="swimlane;whiteSpace=wrap;html=1;rounded=1;shadow=0;comic=0;labelBackgroundColor=none;strokeWidth=1;fontFamily=Verdana;fontSize=12;align=center;" vertex="1" parent="bJJd7IoRdsxBlWUWBcWC-1">
          <mxGeometry x="20" y="80" width="950" height="790" as="geometry" />
        </mxCell>
        <mxCell id="bJJd7IoRdsxBlWUWBcWC-6" style="edgeStyle=elbowEdgeStyle;html=1;labelBackgroundColor=none;endArrow=open;endSize=8;strokeColor=#ff0000;fontFamily=Verdana;fontSize=12;align=left;" edge="1" parent="bJJd7IoRdsxBlWUWBcWC-5" source="bJJd7IoRdsxBlWUWBcWC-8" target="bJJd7IoRdsxBlWUWBcWC-13">
          <mxGeometry relative="1" as="geometry" />
        </mxCell>
        <mxCell id="bJJd7IoRdsxBlWUWBcWC-7" value="Segurança ok" style="edgeLabel;html=1;align=center;verticalAlign=middle;resizable=0;points=[];" vertex="1" connectable="0" parent="bJJd7IoRdsxBlWUWBcWC-6">
          <mxGeometry x="0.12" y="1" relative="1" as="geometry">
            <mxPoint x="-5" y="1" as="offset" />
          </mxGeometry>
        </mxCell>
        <mxCell id="bJJd7IoRdsxBlWUWBcWC-8" value="Desligada" style="rounded=1;whiteSpace=wrap;html=1;arcSize=24;fillColor=#ffffc0;strokeColor=#ff0000;shadow=0;comic=0;labelBackgroundColor=none;fontFamily=Verdana;fontSize=12;fontColor=#000000;align=center;" vertex="1" parent="bJJd7IoRdsxBlWUWBcWC-5">
          <mxGeometry x="95" y="65" width="120" height="60" as="geometry" />
        </mxCell>
        <mxCell id="bJJd7IoRdsxBlWUWBcWC-9" style="edgeStyle=elbowEdgeStyle;html=1;labelBackgroundColor=none;endArrow=open;endSize=8;strokeColor=#ff0000;fontFamily=Verdana;fontSize=12;align=left;" edge="1" parent="bJJd7IoRdsxBlWUWBcWC-5" source="bJJd7IoRdsxBlWUWBcWC-10" target="bJJd7IoRdsxBlWUWBcWC-8">
          <mxGeometry relative="1" as="geometry" />
        </mxCell>
        <mxCell id="bJJd7IoRdsxBlWUWBcWC-10" value="" style="ellipse;html=1;shape=startState;fillColor=#000000;strokeColor=#ff0000;rounded=1;shadow=0;comic=0;labelBackgroundColor=none;fontFamily=Verdana;fontSize=12;fontColor=#000000;align=center;direction=south;" vertex="1" parent="bJJd7IoRdsxBlWUWBcWC-5">
          <mxGeometry x="30" y="80" width="30" height="30" as="geometry" />
        </mxCell>
        <mxCell id="ZGcpSImJQhY-a5giwTJJ-1" value="" style="edgeStyle=orthogonalEdgeStyle;rounded=0;orthogonalLoop=1;jettySize=auto;html=1;" edge="1" parent="bJJd7IoRdsxBlWUWBcWC-5" source="bJJd7IoRdsxBlWUWBcWC-13" target="ZGcpSImJQhY-a5giwTJJ-0">
          <mxGeometry relative="1" as="geometry" />
        </mxCell>
        <mxCell id="ZGcpSImJQhY-a5giwTJJ-2" value="Moveu" style="edgeLabel;html=1;align=center;verticalAlign=middle;resizable=0;points=[];" vertex="1" connectable="0" parent="ZGcpSImJQhY-a5giwTJJ-1">
          <mxGeometry x="-0.12" y="3" relative="1" as="geometry">
            <mxPoint as="offset" />
          </mxGeometry>
        </mxCell>
        <mxCell id="bJJd7IoRdsxBlWUWBcWC-13" value="Standby" style="rounded=1;whiteSpace=wrap;html=1;arcSize=24;fillColor=#ffffc0;strokeColor=#ff0000;shadow=0;comic=0;labelBackgroundColor=none;fontFamily=Verdana;fontSize=12;fontColor=#000000;align=center;" vertex="1" parent="bJJd7IoRdsxBlWUWBcWC-5">
          <mxGeometry x="320" y="65" width="120" height="60" as="geometry" />
        </mxCell>
        <mxCell id="bJJd7IoRdsxBlWUWBcWC-18" value="" style="swimlane;fontStyle=0;childLayout=stackLayout;horizontal=1;startSize=15;fillColor=none;horizontalStack=0;resizeParent=1;resizeParentMax=0;resizeLast=0;collapsible=1;marginBottom=0;whiteSpace=wrap;html=1;" vertex="1" collapsed="1" parent="bJJd7IoRdsxBlWUWBcWC-5">
          <mxGeometry x="740" y="300" width="100" height="30" as="geometry">
            <mxRectangle x="740" y="300" width="150" height="100" as="alternateBounds" />
          </mxGeometry>
        </mxCell>
        <mxCell id="bJJd7IoRdsxBlWUWBcWC-19" value="&lt;div&gt;+ limita corrente;&lt;/div&gt;&lt;div&gt;+ move para posição de&amp;nbsp;&lt;/div&gt;&lt;div&gt;aproximação;&lt;/div&gt;&lt;div&gt;+ aproximou, fecha porta de medição&lt;/div&gt;" style="text;strokeColor=none;fillColor=none;align=left;verticalAlign=top;spacingLeft=4;spacingRight=4;overflow=hidden;rotatable=0;points=[[0,0.5],[1,0.5]];portConstraint=eastwest;whiteSpace=wrap;html=1;" vertex="1" parent="bJJd7IoRdsxBlWUWBcWC-18">
          <mxGeometry y="15" width="150" height="85" as="geometry" />
        </mxCell>
        <mxCell id="ZGcpSImJQhY-a5giwTJJ-6" value="" style="edgeStyle=orthogonalEdgeStyle;rounded=0;orthogonalLoop=1;jettySize=auto;html=1;" edge="1" parent="bJJd7IoRdsxBlWUWBcWC-5" source="bJJd7IoRdsxBlWUWBcWC-24" target="ZGcpSImJQhY-a5giwTJJ-5">
          <mxGeometry relative="1" as="geometry" />
        </mxCell>
        <mxCell id="ZGcpSImJQhY-a5giwTJJ-7" value="Recebeu" style="edgeLabel;html=1;align=center;verticalAlign=middle;resizable=0;points=[];" vertex="1" connectable="0" parent="ZGcpSImJQhY-a5giwTJJ-6">
          <mxGeometry x="-0.0965" y="-4" relative="1" as="geometry">
            <mxPoint as="offset" />
          </mxGeometry>
        </mxCell>
        <mxCell id="bJJd7IoRdsxBlWUWBcWC-24" value="Aguardando&lt;div&gt;peça&lt;/div&gt;" style="rounded=1;whiteSpace=wrap;html=1;arcSize=24;fillColor=#ffffc0;strokeColor=#ff0000;shadow=0;comic=0;labelBackgroundColor=none;fontFamily=Verdana;fontSize=12;fontColor=#000000;align=center;" vertex="1" parent="bJJd7IoRdsxBlWUWBcWC-5">
          <mxGeometry x="740" y="65" width="120" height="60" as="geometry" />
        </mxCell>
        <mxCell id="ZGcpSImJQhY-a5giwTJJ-3" style="edgeStyle=orthogonalEdgeStyle;rounded=0;orthogonalLoop=1;jettySize=auto;html=1;exitX=1;exitY=0.5;exitDx=0;exitDy=0;entryX=0;entryY=0.5;entryDx=0;entryDy=0;" edge="1" parent="bJJd7IoRdsxBlWUWBcWC-5" source="ZGcpSImJQhY-a5giwTJJ-0" target="bJJd7IoRdsxBlWUWBcWC-24">
          <mxGeometry relative="1" as="geometry" />
        </mxCell>
        <mxCell id="ZGcpSImJQhY-a5giwTJJ-4" value="Não" style="edgeLabel;html=1;align=center;verticalAlign=middle;resizable=0;points=[];" vertex="1" connectable="0" parent="ZGcpSImJQhY-a5giwTJJ-3">
          <mxGeometry x="-0.3233" y="2" relative="1" as="geometry">
            <mxPoint as="offset" />
          </mxGeometry>
        </mxCell>
        <mxCell id="ZGcpSImJQhY-a5giwTJJ-8" style="edgeStyle=orthogonalEdgeStyle;rounded=0;orthogonalLoop=1;jettySize=auto;html=1;exitX=0.5;exitY=1;exitDx=0;exitDy=0;entryX=0.25;entryY=0;entryDx=0;entryDy=0;" edge="1" parent="bJJd7IoRdsxBlWUWBcWC-5" source="ZGcpSImJQhY-a5giwTJJ-0" target="ZGcpSImJQhY-a5giwTJJ-5">
          <mxGeometry relative="1" as="geometry" />
        </mxCell>
        <mxCell id="ZGcpSImJQhY-a5giwTJJ-9" value="Sim" style="edgeLabel;html=1;align=center;verticalAlign=middle;resizable=0;points=[];" vertex="1" connectable="0" parent="ZGcpSImJQhY-a5giwTJJ-8">
          <mxGeometry x="-0.8762" y="-2" relative="1" as="geometry">
            <mxPoint as="offset" />
          </mxGeometry>
        </mxCell>
        <mxCell id="ZGcpSImJQhY-a5giwTJJ-0" value="Tem pacote&#xa;na esteira?" style="rhombus;" vertex="1" parent="bJJd7IoRdsxBlWUWBcWC-5">
          <mxGeometry x="530" y="50" width="90" height="90" as="geometry" />
        </mxCell>
        <mxCell id="ZGcpSImJQhY-a5giwTJJ-13" value="" style="edgeStyle=orthogonalEdgeStyle;rounded=0;orthogonalLoop=1;jettySize=auto;html=1;" edge="1" parent="bJJd7IoRdsxBlWUWBcWC-5" source="ZGcpSImJQhY-a5giwTJJ-5" target="ZGcpSImJQhY-a5giwTJJ-12">
          <mxGeometry relative="1" as="geometry" />
        </mxCell>
        <mxCell id="ZGcpSImJQhY-a5giwTJJ-14" value="Aproximou" style="edgeLabel;html=1;align=center;verticalAlign=middle;resizable=0;points=[];" vertex="1" connectable="0" parent="ZGcpSImJQhY-a5giwTJJ-13">
          <mxGeometry x="0.2457" y="-2" relative="1" as="geometry">
            <mxPoint x="16" y="2" as="offset" />
          </mxGeometry>
        </mxCell>
        <mxCell id="ZGcpSImJQhY-a5giwTJJ-5" value="Aproximando" style="rounded=1;whiteSpace=wrap;html=1;arcSize=24;fillColor=#ffffc0;strokeColor=#ff0000;shadow=0;comic=0;labelBackgroundColor=none;fontFamily=Verdana;fontSize=12;fontColor=#000000;align=center;" vertex="1" parent="bJJd7IoRdsxBlWUWBcWC-5">
          <mxGeometry x="740" y="240" width="120" height="60" as="geometry" />
        </mxCell>
        <mxCell id="ZGcpSImJQhY-a5giwTJJ-19" value="" style="edgeStyle=orthogonalEdgeStyle;rounded=0;orthogonalLoop=1;jettySize=auto;html=1;" edge="1" parent="bJJd7IoRdsxBlWUWBcWC-5" source="ZGcpSImJQhY-a5giwTJJ-12" target="ZGcpSImJQhY-a5giwTJJ-18">
          <mxGeometry relative="1" as="geometry" />
        </mxCell>
        <mxCell id="ZGcpSImJQhY-a5giwTJJ-20" value="Encostou" style="edgeLabel;html=1;align=center;verticalAlign=middle;resizable=0;points=[];" vertex="1" connectable="0" parent="ZGcpSImJQhY-a5giwTJJ-19">
          <mxGeometry x="0.2026" relative="1" as="geometry">
            <mxPoint x="9" as="offset" />
          </mxGeometry>
        </mxCell>
        <mxCell id="ZGcpSImJQhY-a5giwTJJ-12" value="Encostando" style="rounded=1;whiteSpace=wrap;html=1;arcSize=24;fillColor=#ffffc0;strokeColor=#ff0000;shadow=0;comic=0;labelBackgroundColor=none;fontFamily=Verdana;fontSize=12;fontColor=#000000;align=center;" vertex="1" parent="bJJd7IoRdsxBlWUWBcWC-5">
          <mxGeometry x="530" y="240" width="120" height="60" as="geometry" />
        </mxCell>
        <mxCell id="ZGcpSImJQhY-a5giwTJJ-15" value="" style="swimlane;fontStyle=0;childLayout=stackLayout;horizontal=1;startSize=15;fillColor=none;horizontalStack=0;resizeParent=1;resizeParentMax=0;resizeLast=0;collapsible=1;marginBottom=0;whiteSpace=wrap;html=1;" vertex="1" collapsed="1" parent="bJJd7IoRdsxBlWUWBcWC-5">
          <mxGeometry x="529" y="300" width="100" height="30" as="geometry">
            <mxRectangle x="515" y="300" width="140" height="70" as="alternateBounds" />
          </mxGeometry>
        </mxCell>
        <mxCell id="ZGcpSImJQhY-a5giwTJJ-16" value="&lt;div&gt;+ limita corrente;&lt;/div&gt;&lt;div&gt;+ move em velocidade até encostar;&lt;/div&gt;" style="text;strokeColor=none;fillColor=none;align=left;verticalAlign=top;spacingLeft=4;spacingRight=4;overflow=hidden;rotatable=0;points=[[0,0.5],[1,0.5]];portConstraint=eastwest;whiteSpace=wrap;html=1;" vertex="1" parent="ZGcpSImJQhY-a5giwTJJ-15">
          <mxGeometry y="15" width="140" height="55" as="geometry" />
        </mxCell>
        <mxCell id="ZGcpSImJQhY-a5giwTJJ-26" value="" style="edgeStyle=orthogonalEdgeStyle;rounded=0;orthogonalLoop=1;jettySize=auto;html=1;" edge="1" parent="bJJd7IoRdsxBlWUWBcWC-5" source="ZGcpSImJQhY-a5giwTJJ-18" target="ZGcpSImJQhY-a5giwTJJ-25">
          <mxGeometry relative="1" as="geometry" />
        </mxCell>
        <mxCell id="ZGcpSImJQhY-a5giwTJJ-27" value="Mediu" style="edgeLabel;html=1;align=center;verticalAlign=middle;resizable=0;points=[];" vertex="1" connectable="0" parent="ZGcpSImJQhY-a5giwTJJ-26">
          <mxGeometry x="0.0465" y="-1" relative="1" as="geometry">
            <mxPoint as="offset" />
          </mxGeometry>
        </mxCell>
        <mxCell id="ZGcpSImJQhY-a5giwTJJ-18" value="Medindo" style="rounded=1;whiteSpace=wrap;html=1;arcSize=24;fillColor=#ffffc0;strokeColor=#ff0000;shadow=0;comic=0;labelBackgroundColor=none;fontFamily=Verdana;fontSize=12;fontColor=#000000;align=center;" vertex="1" parent="bJJd7IoRdsxBlWUWBcWC-5">
          <mxGeometry x="320" y="240" width="120" height="60" as="geometry" />
        </mxCell>
        <mxCell id="ZGcpSImJQhY-a5giwTJJ-22" value="" style="swimlane;fontStyle=0;childLayout=stackLayout;horizontal=1;startSize=15;fillColor=none;horizontalStack=0;resizeParent=1;resizeParentMax=0;resizeLast=0;collapsible=1;marginBottom=0;whiteSpace=wrap;html=1;" vertex="1" collapsed="1" parent="bJJd7IoRdsxBlWUWBcWC-5">
          <mxGeometry x="320" y="300" width="100" height="30" as="geometry">
            <mxRectangle x="320" y="300" width="140" height="70" as="alternateBounds" />
          </mxGeometry>
        </mxCell>
        <mxCell id="ZGcpSImJQhY-a5giwTJJ-23" value="&lt;div&gt;+ limita corrente;&lt;/div&gt;&lt;div&gt;+ move em velocidade;&lt;/div&gt;" style="text;strokeColor=none;fillColor=none;align=left;verticalAlign=top;spacingLeft=4;spacingRight=4;overflow=hidden;rotatable=0;points=[[0,0.5],[1,0.5]];portConstraint=eastwest;whiteSpace=wrap;html=1;" vertex="1" parent="ZGcpSImJQhY-a5giwTJJ-22">
          <mxGeometry y="15" width="140" height="55" as="geometry" />
        </mxCell>
        <mxCell id="ZGcpSImJQhY-a5giwTJJ-31" style="edgeStyle=orthogonalEdgeStyle;rounded=0;orthogonalLoop=1;jettySize=auto;html=1;exitX=0;exitY=0.5;exitDx=0;exitDy=0;entryX=0;entryY=0.5;entryDx=0;entryDy=0;" edge="1" parent="bJJd7IoRdsxBlWUWBcWC-5" source="ZGcpSImJQhY-a5giwTJJ-25" target="ZGcpSImJQhY-a5giwTJJ-30">
          <mxGeometry relative="1" as="geometry">
            <Array as="points">
              <mxPoint x="70" y="270" />
              <mxPoint x="70" y="445" />
            </Array>
          </mxGeometry>
        </mxCell>
        <mxCell id="ZGcpSImJQhY-a5giwTJJ-32" value="Corrigiu" style="edgeLabel;html=1;align=center;verticalAlign=middle;resizable=0;points=[];" vertex="1" connectable="0" parent="ZGcpSImJQhY-a5giwTJJ-31">
          <mxGeometry x="-0.0754" y="-1" relative="1" as="geometry">
            <mxPoint as="offset" />
          </mxGeometry>
        </mxCell>
        <mxCell id="ZGcpSImJQhY-a5giwTJJ-25" value="Medição&lt;div&gt;finalizada&lt;/div&gt;" style="rounded=1;whiteSpace=wrap;html=1;arcSize=24;fillColor=#ffffc0;strokeColor=#ff0000;shadow=0;comic=0;labelBackgroundColor=none;fontFamily=Verdana;fontSize=12;fontColor=#000000;align=center;" vertex="1" parent="bJJd7IoRdsxBlWUWBcWC-5">
          <mxGeometry x="95" y="240" width="120" height="60" as="geometry" />
        </mxCell>
        <mxCell id="ZGcpSImJQhY-a5giwTJJ-28" value="" style="swimlane;fontStyle=0;childLayout=stackLayout;horizontal=1;startSize=15;fillColor=none;horizontalStack=0;resizeParent=1;resizeParentMax=0;resizeLast=0;collapsible=1;marginBottom=0;whiteSpace=wrap;html=1;" vertex="1" collapsed="1" parent="bJJd7IoRdsxBlWUWBcWC-5">
          <mxGeometry x="95" y="300" width="100" height="30" as="geometry">
            <mxRectangle x="95" y="300" width="140" height="70" as="alternateBounds" />
          </mxGeometry>
        </mxCell>
        <mxCell id="ZGcpSImJQhY-a5giwTJJ-29" value="&lt;div&gt;+ corrige erro de lag;&lt;/div&gt;" style="text;strokeColor=none;fillColor=none;align=left;verticalAlign=top;spacingLeft=4;spacingRight=4;overflow=hidden;rotatable=0;points=[[0,0.5],[1,0.5]];portConstraint=eastwest;whiteSpace=wrap;html=1;" vertex="1" parent="ZGcpSImJQhY-a5giwTJJ-28">
          <mxGeometry y="15" width="140" height="55" as="geometry" />
        </mxCell>
        <mxCell id="ZGcpSImJQhY-a5giwTJJ-34" style="edgeStyle=orthogonalEdgeStyle;rounded=0;orthogonalLoop=1;jettySize=auto;html=1;exitX=1;exitY=0.5;exitDx=0;exitDy=0;entryX=0;entryY=0.5;entryDx=0;entryDy=0;" edge="1" parent="bJJd7IoRdsxBlWUWBcWC-5" source="ZGcpSImJQhY-a5giwTJJ-30" target="ZGcpSImJQhY-a5giwTJJ-33">
          <mxGeometry relative="1" as="geometry" />
        </mxCell>
        <mxCell id="ZGcpSImJQhY-a5giwTJJ-35" value="Não" style="edgeLabel;html=1;align=center;verticalAlign=middle;resizable=0;points=[];" vertex="1" connectable="0" parent="ZGcpSImJQhY-a5giwTJJ-34">
          <mxGeometry x="-0.3824" relative="1" as="geometry">
            <mxPoint x="1" as="offset" />
          </mxGeometry>
        </mxCell>
        <mxCell id="ZGcpSImJQhY-a5giwTJJ-55" style="edgeStyle=orthogonalEdgeStyle;rounded=0;orthogonalLoop=1;jettySize=auto;html=1;exitX=0.5;exitY=1;exitDx=0;exitDy=0;entryX=0.5;entryY=0;entryDx=0;entryDy=0;" edge="1" parent="bJJd7IoRdsxBlWUWBcWC-5" source="ZGcpSImJQhY-a5giwTJJ-30" target="ZGcpSImJQhY-a5giwTJJ-53">
          <mxGeometry relative="1" as="geometry" />
        </mxCell>
        <mxCell id="ZGcpSImJQhY-a5giwTJJ-30" value="Medição&#xa;aprovada?" style="rhombus;" vertex="1" parent="bJJd7IoRdsxBlWUWBcWC-5">
          <mxGeometry x="110" y="400" width="90" height="90" as="geometry" />
        </mxCell>
        <mxCell id="ZGcpSImJQhY-a5giwTJJ-40" value="" style="edgeStyle=orthogonalEdgeStyle;rounded=0;orthogonalLoop=1;jettySize=auto;html=1;" edge="1" parent="bJJd7IoRdsxBlWUWBcWC-5" source="ZGcpSImJQhY-a5giwTJJ-33" target="ZGcpSImJQhY-a5giwTJJ-39">
          <mxGeometry relative="1" as="geometry" />
        </mxCell>
        <mxCell id="ZGcpSImJQhY-a5giwTJJ-41" value="Abriu&lt;div&gt;porta&lt;/div&gt;" style="edgeLabel;html=1;align=center;verticalAlign=middle;resizable=0;points=[];" vertex="1" connectable="0" parent="ZGcpSImJQhY-a5giwTJJ-40">
          <mxGeometry x="-0.0615" y="-3" relative="1" as="geometry">
            <mxPoint x="1" as="offset" />
          </mxGeometry>
        </mxCell>
        <mxCell id="ZGcpSImJQhY-a5giwTJJ-33" value="Afastando" style="rounded=1;whiteSpace=wrap;html=1;arcSize=24;fillColor=#ffffc0;strokeColor=#ff0000;shadow=0;comic=0;labelBackgroundColor=none;fontFamily=Verdana;fontSize=12;fontColor=#000000;align=center;" vertex="1" parent="bJJd7IoRdsxBlWUWBcWC-5">
          <mxGeometry x="316.18" y="415" width="120" height="60" as="geometry" />
        </mxCell>
        <mxCell id="ZGcpSImJQhY-a5giwTJJ-36" value="" style="swimlane;fontStyle=0;childLayout=stackLayout;horizontal=1;startSize=15;fillColor=none;horizontalStack=0;resizeParent=1;resizeParentMax=0;resizeLast=0;collapsible=1;marginBottom=0;whiteSpace=wrap;html=1;" vertex="1" collapsed="1" parent="bJJd7IoRdsxBlWUWBcWC-5">
          <mxGeometry x="526.18" y="475" width="100" height="30" as="geometry">
            <mxRectangle x="530" y="435" width="140" height="100" as="alternateBounds" />
          </mxGeometry>
        </mxCell>
        <mxCell id="ZGcpSImJQhY-a5giwTJJ-37" value="&lt;div&gt;+ Sobe para posição de correção;&lt;/div&gt;&lt;div&gt;+ aguarda start pelo operoador;&lt;/div&gt;" style="text;strokeColor=none;fillColor=none;align=left;verticalAlign=top;spacingLeft=4;spacingRight=4;overflow=hidden;rotatable=0;points=[[0,0.5],[1,0.5]];portConstraint=eastwest;whiteSpace=wrap;html=1;" vertex="1" parent="ZGcpSImJQhY-a5giwTJJ-36">
          <mxGeometry y="15" width="140" height="85" as="geometry" />
        </mxCell>
        <mxCell id="ZGcpSImJQhY-a5giwTJJ-47" value="" style="edgeStyle=orthogonalEdgeStyle;rounded=0;orthogonalLoop=1;jettySize=auto;html=1;" edge="1" parent="bJJd7IoRdsxBlWUWBcWC-5" source="ZGcpSImJQhY-a5giwTJJ-39" target="ZGcpSImJQhY-a5giwTJJ-46">
          <mxGeometry relative="1" as="geometry" />
        </mxCell>
        <mxCell id="ZGcpSImJQhY-a5giwTJJ-48" value="Confirmou" style="edgeLabel;html=1;align=center;verticalAlign=middle;resizable=0;points=[];" vertex="1" connectable="0" parent="ZGcpSImJQhY-a5giwTJJ-47">
          <mxGeometry x="0.0012" relative="1" as="geometry">
            <mxPoint as="offset" />
          </mxGeometry>
        </mxCell>
        <mxCell id="ZGcpSImJQhY-a5giwTJJ-39" value="Corrigindo" style="rounded=1;whiteSpace=wrap;html=1;arcSize=24;fillColor=#ffffc0;strokeColor=#ff0000;shadow=0;comic=0;labelBackgroundColor=none;fontFamily=Verdana;fontSize=12;fontColor=#000000;align=center;" vertex="1" parent="bJJd7IoRdsxBlWUWBcWC-5">
          <mxGeometry x="525.18" y="415" width="120" height="60" as="geometry" />
        </mxCell>
        <mxCell id="ZGcpSImJQhY-a5giwTJJ-42" value="" style="swimlane;fontStyle=0;childLayout=stackLayout;horizontal=1;startSize=15;fillColor=none;horizontalStack=0;resizeParent=1;resizeParentMax=0;resizeLast=0;collapsible=1;marginBottom=0;whiteSpace=wrap;html=1;" vertex="1" collapsed="1" parent="bJJd7IoRdsxBlWUWBcWC-5">
          <mxGeometry x="316.18" y="475" width="100" height="30" as="geometry">
            <mxRectangle x="316.18" y="475" width="140" height="100" as="alternateBounds" />
          </mxGeometry>
        </mxCell>
        <mxCell id="ZGcpSImJQhY-a5giwTJJ-43" value="&lt;div&gt;+ Avança extrator;&lt;/div&gt;&lt;div&gt;+ Move para posição de aproximação;&lt;/div&gt;&lt;div&gt;+Abre porta de medição;&lt;/div&gt;" style="text;strokeColor=none;fillColor=none;align=left;verticalAlign=top;spacingLeft=4;spacingRight=4;overflow=hidden;rotatable=0;points=[[0,0.5],[1,0.5]];portConstraint=eastwest;whiteSpace=wrap;html=1;" vertex="1" parent="ZGcpSImJQhY-a5giwTJJ-42">
          <mxGeometry y="15" width="140" height="85" as="geometry" />
        </mxCell>
        <mxCell id="ZGcpSImJQhY-a5giwTJJ-49" style="edgeStyle=orthogonalEdgeStyle;rounded=0;orthogonalLoop=1;jettySize=auto;html=1;exitX=0.5;exitY=1;exitDx=0;exitDy=0;entryX=0.25;entryY=1;entryDx=0;entryDy=0;" edge="1" parent="bJJd7IoRdsxBlWUWBcWC-5" source="ZGcpSImJQhY-a5giwTJJ-46" target="bJJd7IoRdsxBlWUWBcWC-13">
          <mxGeometry relative="1" as="geometry">
            <mxPoint x="320" y="130" as="targetPoint" />
            <Array as="points">
              <mxPoint x="786" y="580" />
              <mxPoint x="40" y="580" />
              <mxPoint x="40" y="190" />
              <mxPoint x="350" y="190" />
            </Array>
          </mxGeometry>
        </mxCell>
        <mxCell id="ZGcpSImJQhY-a5giwTJJ-50" value="Sim" style="edgeLabel;html=1;align=center;verticalAlign=middle;resizable=0;points=[];" vertex="1" connectable="0" parent="ZGcpSImJQhY-a5giwTJJ-49">
          <mxGeometry x="-0.9664" y="-2" relative="1" as="geometry">
            <mxPoint y="1" as="offset" />
          </mxGeometry>
        </mxCell>
        <mxCell id="ZGcpSImJQhY-a5giwTJJ-51" style="edgeStyle=orthogonalEdgeStyle;rounded=0;orthogonalLoop=1;jettySize=auto;html=1;exitX=1;exitY=0.5;exitDx=0;exitDy=0;entryX=1;entryY=0.5;entryDx=0;entryDy=0;" edge="1" parent="bJJd7IoRdsxBlWUWBcWC-5" source="ZGcpSImJQhY-a5giwTJJ-46" target="ZGcpSImJQhY-a5giwTJJ-5">
          <mxGeometry relative="1" as="geometry">
            <Array as="points">
              <mxPoint x="900" y="445" />
              <mxPoint x="900" y="270" />
            </Array>
          </mxGeometry>
        </mxCell>
        <mxCell id="ZGcpSImJQhY-a5giwTJJ-52" value="Não" style="edgeLabel;html=1;align=center;verticalAlign=middle;resizable=0;points=[];" vertex="1" connectable="0" parent="ZGcpSImJQhY-a5giwTJJ-51">
          <mxGeometry x="-0.8147" y="2" relative="1" as="geometry">
            <mxPoint as="offset" />
          </mxGeometry>
        </mxCell>
        <mxCell id="ZGcpSImJQhY-a5giwTJJ-46" value="Peça&#xa;retirada?" style="rhombus;" vertex="1" parent="bJJd7IoRdsxBlWUWBcWC-5">
          <mxGeometry x="741.18" y="400" width="90" height="90" as="geometry" />
        </mxCell>
        <mxCell id="ZGcpSImJQhY-a5giwTJJ-10" value="" style="swimlane;fontStyle=0;childLayout=stackLayout;horizontal=1;startSize=15;fillColor=none;horizontalStack=0;resizeParent=1;resizeParentMax=0;resizeLast=0;collapsible=1;marginBottom=0;whiteSpace=wrap;html=1;" vertex="1" collapsed="1" parent="bJJd7IoRdsxBlWUWBcWC-5">
          <mxGeometry x="370" y="125" width="100" height="30" as="geometry">
            <mxRectangle x="370" y="125" width="150" height="69" as="alternateBounds" />
          </mxGeometry>
        </mxCell>
        <mxCell id="ZGcpSImJQhY-a5giwTJJ-11" value="&lt;div&gt;+ Aguarda estar em ciclo;&lt;/div&gt;+ move para posição inicial quando em ciclo;" style="text;strokeColor=none;fillColor=none;align=left;verticalAlign=top;spacingLeft=4;spacingRight=4;overflow=hidden;rotatable=0;points=[[0,0.5],[1,0.5]];portConstraint=eastwest;whiteSpace=wrap;html=1;" vertex="1" parent="ZGcpSImJQhY-a5giwTJJ-10">
          <mxGeometry y="15" width="150" height="54" as="geometry" />
        </mxCell>
        <mxCell id="ZGcpSImJQhY-a5giwTJJ-60" value="" style="edgeStyle=orthogonalEdgeStyle;rounded=0;orthogonalLoop=1;jettySize=auto;html=1;" edge="1" parent="bJJd7IoRdsxBlWUWBcWC-5" source="ZGcpSImJQhY-a5giwTJJ-53" target="ZGcpSImJQhY-a5giwTJJ-59">
          <mxGeometry relative="1" as="geometry" />
        </mxCell>
        <mxCell id="ZGcpSImJQhY-a5giwTJJ-61" value="Afastou" style="edgeLabel;html=1;align=center;verticalAlign=middle;resizable=0;points=[];" vertex="1" connectable="0" parent="ZGcpSImJQhY-a5giwTJJ-60">
          <mxGeometry x="-0.2065" y="-1" relative="1" as="geometry">
            <mxPoint as="offset" />
          </mxGeometry>
        </mxCell>
        <mxCell id="ZGcpSImJQhY-a5giwTJJ-53" value="Afastando&lt;div&gt;descarga&lt;/div&gt;" style="rounded=1;whiteSpace=wrap;html=1;arcSize=24;fillColor=#ffffc0;strokeColor=#ff0000;shadow=0;comic=0;labelBackgroundColor=none;fontFamily=Verdana;fontSize=12;fontColor=#000000;align=center;" vertex="1" parent="bJJd7IoRdsxBlWUWBcWC-5">
          <mxGeometry x="95" y="600" width="120" height="60" as="geometry" />
        </mxCell>
        <mxCell id="ZGcpSImJQhY-a5giwTJJ-56" value="" style="swimlane;fontStyle=0;childLayout=stackLayout;horizontal=1;startSize=15;fillColor=none;horizontalStack=0;resizeParent=1;resizeParentMax=0;resizeLast=0;collapsible=1;marginBottom=0;whiteSpace=wrap;html=1;" vertex="1" collapsed="1" parent="bJJd7IoRdsxBlWUWBcWC-5">
          <mxGeometry x="95" y="660" width="100" height="30" as="geometry">
            <mxRectangle x="95" y="660" width="140" height="100" as="alternateBounds" />
          </mxGeometry>
        </mxCell>
        <mxCell id="ZGcpSImJQhY-a5giwTJJ-57" value="&lt;div&gt;&lt;span style=&quot;background-color: initial;&quot;&gt;+ Move para posição de aproximação;&lt;/span&gt;&lt;/div&gt;&lt;div&gt;&lt;span style=&quot;background-color: initial;&quot;&gt;+ moveu, recua extrator;&lt;/span&gt;&lt;/div&gt;" style="text;strokeColor=none;fillColor=none;align=left;verticalAlign=top;spacingLeft=4;spacingRight=4;overflow=hidden;rotatable=0;points=[[0,0.5],[1,0.5]];portConstraint=eastwest;whiteSpace=wrap;html=1;" vertex="1" parent="ZGcpSImJQhY-a5giwTJJ-56">
          <mxGeometry y="15" width="140" height="85" as="geometry" />
        </mxCell>
        <mxCell id="ZGcpSImJQhY-a5giwTJJ-66" value="" style="edgeStyle=orthogonalEdgeStyle;rounded=0;orthogonalLoop=1;jettySize=auto;html=1;" edge="1" parent="bJJd7IoRdsxBlWUWBcWC-5" source="ZGcpSImJQhY-a5giwTJJ-59" target="ZGcpSImJQhY-a5giwTJJ-65">
          <mxGeometry relative="1" as="geometry" />
        </mxCell>
        <mxCell id="ZGcpSImJQhY-a5giwTJJ-67" value="Descarregou" style="edgeLabel;html=1;align=center;verticalAlign=middle;resizable=0;points=[];" vertex="1" connectable="0" parent="ZGcpSImJQhY-a5giwTJJ-66">
          <mxGeometry x="-0.2844" y="-1" relative="1" as="geometry">
            <mxPoint as="offset" />
          </mxGeometry>
        </mxCell>
        <mxCell id="ZGcpSImJQhY-a5giwTJJ-59" value="Descarregando" style="rounded=1;whiteSpace=wrap;html=1;arcSize=24;fillColor=#ffffc0;strokeColor=#ff0000;shadow=0;comic=0;labelBackgroundColor=none;fontFamily=Verdana;fontSize=12;fontColor=#000000;align=center;" vertex="1" parent="bJJd7IoRdsxBlWUWBcWC-5">
          <mxGeometry x="306.18" y="600" width="120" height="60" as="geometry" />
        </mxCell>
        <mxCell id="ZGcpSImJQhY-a5giwTJJ-63" value="" style="swimlane;fontStyle=0;childLayout=stackLayout;horizontal=1;startSize=15;fillColor=none;horizontalStack=0;resizeParent=1;resizeParentMax=0;resizeLast=0;collapsible=1;marginBottom=0;whiteSpace=wrap;html=1;" vertex="1" collapsed="1" parent="bJJd7IoRdsxBlWUWBcWC-5">
          <mxGeometry x="306.18" y="660" width="100" height="30" as="geometry">
            <mxRectangle x="306.18" y="660" width="100" height="60" as="alternateBounds" />
          </mxGeometry>
        </mxCell>
        <mxCell id="ZGcpSImJQhY-a5giwTJJ-64" value="&lt;div&gt;&lt;span style=&quot;background-color: initial;&quot;&gt;+ Desce pacote para a esteira;&lt;/span&gt;&lt;/div&gt;" style="text;strokeColor=none;fillColor=none;align=left;verticalAlign=top;spacingLeft=4;spacingRight=4;overflow=hidden;rotatable=0;points=[[0,0.5],[1,0.5]];portConstraint=eastwest;whiteSpace=wrap;html=1;" vertex="1" parent="ZGcpSImJQhY-a5giwTJJ-63">
          <mxGeometry y="15" width="100" height="45" as="geometry" />
        </mxCell>
        <mxCell id="ZGcpSImJQhY-a5giwTJJ-69" value="" style="edgeStyle=orthogonalEdgeStyle;rounded=0;orthogonalLoop=1;jettySize=auto;html=1;" edge="1" parent="bJJd7IoRdsxBlWUWBcWC-5" source="ZGcpSImJQhY-a5giwTJJ-65" target="ZGcpSImJQhY-a5giwTJJ-68">
          <mxGeometry relative="1" as="geometry" />
        </mxCell>
        <mxCell id="ZGcpSImJQhY-a5giwTJJ-70" value="Esteira&lt;div&gt;retirou&lt;/div&gt;" style="edgeLabel;html=1;align=center;verticalAlign=middle;resizable=0;points=[];" vertex="1" connectable="0" parent="ZGcpSImJQhY-a5giwTJJ-69">
          <mxGeometry x="-0.4316" relative="1" as="geometry">
            <mxPoint as="offset" />
          </mxGeometry>
        </mxCell>
        <mxCell id="ZGcpSImJQhY-a5giwTJJ-65" value="Aguardando&lt;div&gt;saída&lt;/div&gt;&lt;div&gt;medição&lt;/div&gt;" style="rounded=1;whiteSpace=wrap;html=1;arcSize=24;fillColor=#ffffc0;strokeColor=#ff0000;shadow=0;comic=0;labelBackgroundColor=none;fontFamily=Verdana;fontSize=12;fontColor=#000000;align=center;" vertex="1" parent="bJJd7IoRdsxBlWUWBcWC-5">
          <mxGeometry x="525.1800000000001" y="600" width="120" height="60" as="geometry" />
        </mxCell>
        <mxCell id="ZGcpSImJQhY-a5giwTJJ-72" style="edgeStyle=orthogonalEdgeStyle;rounded=0;orthogonalLoop=1;jettySize=auto;html=1;exitX=0.5;exitY=1;exitDx=0;exitDy=0;entryX=0;entryY=1;entryDx=0;entryDy=0;" edge="1" parent="bJJd7IoRdsxBlWUWBcWC-5" source="ZGcpSImJQhY-a5giwTJJ-68" target="bJJd7IoRdsxBlWUWBcWC-13">
          <mxGeometry relative="1" as="geometry">
            <Array as="points">
              <mxPoint x="785" y="740" />
              <mxPoint x="20" y="740" />
              <mxPoint x="20" y="160" />
              <mxPoint x="320" y="160" />
            </Array>
          </mxGeometry>
        </mxCell>
        <mxCell id="ZGcpSImJQhY-a5giwTJJ-73" value="Sim" style="edgeLabel;html=1;align=center;verticalAlign=middle;resizable=0;points=[];" vertex="1" connectable="0" parent="ZGcpSImJQhY-a5giwTJJ-72">
          <mxGeometry x="-0.9556" y="-2" relative="1" as="geometry">
            <mxPoint as="offset" />
          </mxGeometry>
        </mxCell>
        <mxCell id="ZGcpSImJQhY-a5giwTJJ-74" style="edgeStyle=orthogonalEdgeStyle;rounded=0;orthogonalLoop=1;jettySize=auto;html=1;exitX=1;exitY=0.5;exitDx=0;exitDy=0;entryX=1;entryY=0.5;entryDx=0;entryDy=0;" edge="1" parent="bJJd7IoRdsxBlWUWBcWC-5" source="ZGcpSImJQhY-a5giwTJJ-68" target="bJJd7IoRdsxBlWUWBcWC-24">
          <mxGeometry relative="1" as="geometry">
            <Array as="points">
              <mxPoint x="930" y="630" />
              <mxPoint x="930" y="95" />
            </Array>
          </mxGeometry>
        </mxCell>
        <mxCell id="ZGcpSImJQhY-a5giwTJJ-75" value="Não" style="edgeLabel;html=1;align=center;verticalAlign=middle;resizable=0;points=[];" vertex="1" connectable="0" parent="ZGcpSImJQhY-a5giwTJJ-74">
          <mxGeometry x="-0.895" y="1" relative="1" as="geometry">
            <mxPoint x="-1" as="offset" />
          </mxGeometry>
        </mxCell>
        <mxCell id="ZGcpSImJQhY-a5giwTJJ-68" value="Último&#xa;ciclo?" style="rhombus;" vertex="1" parent="bJJd7IoRdsxBlWUWBcWC-5">
          <mxGeometry x="740" y="585" width="90" height="90" as="geometry" />
        </mxCell>
        <mxCell id="bJJd7IoRdsxBlWUWBcWC-77" style="edgeStyle=orthogonalEdgeStyle;html=1;labelBackgroundColor=none;endArrow=open;endSize=8;strokeColor=#ff0000;fontFamily=Verdana;fontSize=12;align=left;entryX=0.25;entryY=0;entryDx=0;entryDy=0;exitX=0.5;exitY=0;exitDx=0;exitDy=0;" edge="1" parent="bJJd7IoRdsxBlWUWBcWC-1" source="bJJd7IoRdsxBlWUWBcWC-2" target="bJJd7IoRdsxBlWUWBcWC-5">
          <mxGeometry relative="1" as="geometry">
            <mxPoint x="210" y="-45" as="targetPoint" />
          </mxGeometry>
        </mxCell>
        <mxCell id="bJJd7IoRdsxBlWUWBcWC-78" value="Confirma remoção de pacotes" style="edgeLabel;html=1;align=center;verticalAlign=middle;resizable=0;points=[];" vertex="1" connectable="0" parent="bJJd7IoRdsxBlWUWBcWC-77">
          <mxGeometry x="0.1244" y="-1" relative="1" as="geometry">
            <mxPoint as="offset" />
          </mxGeometry>
        </mxCell>
        <mxCell id="bJJd7IoRdsxBlWUWBcWC-79" value="" style="ellipse;html=1;shape=endState;fillColor=#000000;strokeColor=#ff0000;rounded=1;shadow=0;comic=0;labelBackgroundColor=none;fontFamily=Verdana;fontSize=12;fontColor=#000000;align=center;" vertex="1" parent="bJJd7IoRdsxBlWUWBcWC-1">
          <mxGeometry x="920" y="20" width="30" height="30" as="geometry" />
        </mxCell>
      </root>
    </mxGraphModel>
  </diagram>
</mxfile>
